<svg width="92" height="90" viewBox="0 0 92 90" fill="none" xmlns="http://www.w3.org/2000/svg">
<g clip-path="url(#clip0_2_703)">
<path d="M30.7331 19.2254L8.29014 12.2842C7.59601 12.0698 6.86498 12.1947 6.28235 12.625C5.69894 13.0553 5.36444 13.7172 5.36444 14.4419V83.2108C5.36444 83.9355 5.69894 84.5974 6.28235 85.0277C6.6781 85.3198 7.14216 85.4706 7.61643 85.4706C7.84021 85.4706 8.06714 85.4368 8.29014 85.3685L30.7323 78.4272C31.6839 78.1328 32.3231 77.2659 32.3231 76.2695V21.3832C32.3239 20.3876 31.6839 19.5199 30.7331 19.2254Z" fill="#8B98A6"/>
<path d="M60.5711 19.2254L38.1281 12.2841C37.4348 12.0698 36.7038 12.1946 36.1204 12.6249C35.537 13.0552 35.2025 13.7171 35.2025 14.4419V83.2107C35.2025 83.9355 35.537 84.5974 36.1204 85.0277C36.5161 85.3198 36.9802 85.4705 37.4544 85.4705C37.6782 85.4705 37.9051 85.4368 38.1281 85.3685L60.5703 78.4272C61.522 78.1327 62.1611 77.2659 62.1611 76.2694V21.3832C62.1619 20.3875 61.522 19.5199 60.5711 19.2254Z" fill="#8B98A6"/>
<path d="M92 21.3832C92 20.3875 91.3608 19.5199 90.4091 19.2254L67.9662 12.2841C67.2721 12.0698 66.5411 12.1946 65.9584 12.6249C65.375 13.0552 65.0405 13.7171 65.0405 14.4419V83.2107C65.0405 83.9355 65.375 84.5974 65.9584 85.0277C66.3542 85.3198 66.8182 85.4705 67.2925 85.4705C67.5163 85.4705 67.7432 85.4368 67.9662 85.3685L90.4084 78.4272C91.36 78.1327 91.9992 77.2659 91.9992 76.2694V21.3832H92Z" fill="#8B98A6"/>
<path d="M27.36 16.8348L4.91704 9.89353C3.96929 9.60065 3.00897 10.3089 3.00897 11.3006V80.0694C3.00897 81.0612 3.96929 81.7694 4.91704 81.4765L27.36 74.5353C27.9771 74.3445 28.398 73.7744 28.398 73.1282V18.2419C28.398 17.5965 27.9771 17.0256 27.36 16.8348Z" fill="#C7DDFC"/>
<path d="M27.36 16.8351L5.88129 10.1922C5.57192 10.4584 5.36462 10.847 5.36462 11.3009V80.0697C5.36462 80.5235 5.57192 80.9122 5.88129 81.1784L27.36 74.5355C27.9771 74.3447 28.398 73.7746 28.398 73.1284V18.2422C28.398 17.5967 27.9771 17.0259 27.36 16.8351Z" fill="#6DC9F7"/>
<path d="M57.198 16.835L34.755 9.89376C33.8073 9.60088 32.847 10.3091 32.847 11.3009V80.0697C32.847 81.0614 33.8073 81.7696 34.755 81.4768L57.198 74.5355C57.8151 74.3447 58.236 73.7746 58.236 73.1284V18.2421C58.236 17.5967 57.8151 17.0258 57.198 16.835Z" fill="#FA759E"/>
<path d="M87.0359 16.835L64.593 9.89376C63.6453 9.60088 62.6849 10.3091 62.6849 11.3009V80.0697C62.6849 81.0614 63.6453 81.7696 64.593 81.4768L87.0359 74.5355C87.6531 74.3447 88.074 73.7746 88.074 73.1284V18.2421C88.074 17.5967 87.6531 17.0258 87.0359 16.835Z" fill="#FFD7E5"/>
<path d="M27.5922 16.0844L5.14933 9.14317C4.4552 8.92959 3.72496 9.05287 3.14154 9.48316C2.55813 9.91346 2.22363 10.5762 2.22363 11.3001V80.069C2.22363 80.7937 2.55813 81.4564 3.14233 81.8859C3.53808 82.178 4.00135 82.328 4.47483 82.328C4.69862 82.328 4.92554 82.2942 5.14854 82.2251L27.5915 75.2847C28.5423 74.9902 29.1815 74.1233 29.1815 73.1269V18.2406C29.1823 17.2458 28.5431 16.3789 27.5922 16.0844ZM27.6119 73.1285C27.6119 73.4316 27.4171 73.6962 27.1274 73.7849L4.68449 80.7262C4.47483 80.7913 4.25183 80.7537 4.07438 80.6225C3.89692 80.4914 3.79484 80.2896 3.79484 80.069V11.3009C3.79484 11.0803 3.89692 10.8785 4.07438 10.7474C4.19451 10.6586 4.33585 10.6123 4.48033 10.6123C4.54864 10.6123 4.61774 10.6225 4.68527 10.6437L27.1282 17.585C27.4179 17.6745 27.6127 17.9383 27.6127 18.2414V73.1285H27.6119Z" fill="#3A2C60"/>
<path d="M23.032 25.27H8.37451C7.94028 25.27 7.58929 25.6217 7.58929 26.0552C7.58929 26.4886 7.94028 26.8404 8.37451 26.8404H23.032C23.4663 26.8404 23.8173 26.4886 23.8173 26.0552C23.8173 25.6217 23.4663 25.27 23.032 25.27Z" fill="#3A2C60"/>
<path d="M23.032 48.8263H13.3802C12.946 48.8263 12.595 49.1781 12.595 49.6115C12.595 50.045 12.946 50.3967 13.3802 50.3967H23.032C23.4662 50.3967 23.8172 50.045 23.8172 49.6115C23.8172 49.1781 23.4662 48.8263 23.032 48.8263Z" fill="#3A2C60"/>
<path d="M10.6328 48.8263H8.37451C7.94028 48.8263 7.58929 49.1781 7.58929 49.6115C7.58929 50.045 7.94028 50.3967 8.37451 50.3967H10.6328C11.067 50.3967 11.418 50.045 11.418 49.6115C11.418 49.1781 11.067 48.8263 10.6328 48.8263Z" fill="#3A2C60"/>
<path d="M23.032 54.3228H13.3802C12.946 54.3228 12.595 54.6746 12.595 55.108C12.595 55.5414 12.946 55.8932 13.3802 55.8932H23.032C23.4662 55.8932 23.8172 55.5414 23.8172 55.108C23.8172 54.6746 23.4662 54.3228 23.032 54.3228Z" fill="#3A2C60"/>
<path d="M10.6328 54.3228H8.37451C7.94028 54.3228 7.58929 54.6746 7.58929 55.108C7.58929 55.5414 7.94028 55.8932 8.37451 55.8932H10.6328C11.067 55.8932 11.418 55.5414 11.418 55.108C11.418 54.6746 11.067 54.3228 10.6328 54.3228Z" fill="#3A2C60"/>
<path d="M57.4303 16.0844L34.9874 9.14317C34.2933 8.92959 33.563 9.05287 32.9796 9.48316C32.3962 9.91346 32.0617 10.5762 32.0617 11.3001V80.069C32.0617 80.7937 32.3962 81.4564 32.9804 81.8859C33.3761 82.178 33.8394 82.328 34.3129 82.328C34.5367 82.328 34.7636 82.2942 34.9866 82.2251L57.4295 75.2847C58.3804 74.9902 59.0196 74.1233 59.0196 73.1269V18.2406C59.0204 17.2458 58.3812 16.3789 57.4303 16.0844ZM57.4499 73.1285C57.4499 73.4316 57.2552 73.6962 56.9655 73.7849L34.5226 80.7262C34.3129 80.7913 34.0899 80.7537 33.9124 80.6225C33.735 80.4914 33.6329 80.2896 33.6329 80.069V11.3009C33.6329 11.0803 33.735 10.8785 33.9124 10.7474C34.0326 10.6586 34.1739 10.6123 34.3184 10.6123C34.3867 10.6123 34.4558 10.6225 34.5233 10.6437L56.9663 17.585C57.256 17.6745 57.4507 17.9383 57.4507 18.2414V73.1285H57.4499Z" fill="#3A2C60"/>
<path d="M52.87 25.27H38.2125C37.7782 25.27 37.4272 25.6217 37.4272 26.0552C37.4272 26.4886 37.7782 26.8404 38.2125 26.8404H52.87C53.3042 26.8404 53.6552 26.4886 53.6552 26.0552C53.6552 25.6217 53.3042 25.27 52.87 25.27Z" fill="#3A2C60"/>
<path d="M52.87 48.8263H43.2182C42.784 48.8263 42.433 49.1781 42.433 49.6115C42.433 50.045 42.784 50.3967 43.2182 50.3967H52.87C53.3042 50.3967 53.6552 50.045 53.6552 49.6115C53.6552 49.1781 53.3042 48.8263 52.87 48.8263Z" fill="#3A2C60"/>
<path d="M40.4707 48.8263H38.2125C37.7782 48.8263 37.4272 49.1781 37.4272 49.6115C37.4272 50.045 37.7782 50.3967 38.2125 50.3967H40.4707C40.9049 50.3967 41.2559 50.045 41.2559 49.6115C41.2559 49.1781 40.9049 48.8263 40.4707 48.8263Z" fill="#3A2C60"/>
<path d="M52.87 54.3228H43.2182C42.784 54.3228 42.433 54.6746 42.433 55.108C42.433 55.5414 42.784 55.8932 43.2182 55.8932H52.87C53.3042 55.8932 53.6552 55.5414 53.6552 55.108C53.6552 54.6746 53.3042 54.3228 52.87 54.3228Z" fill="#3A2C60"/>
<path d="M40.4707 54.3228H38.2125C37.7782 54.3228 37.4272 54.6746 37.4272 55.108C37.4272 55.5414 37.7782 55.8932 38.2125 55.8932H40.4707C40.9049 55.8932 41.2559 55.5414 41.2559 55.108C41.2559 54.6746 40.9049 54.3228 40.4707 54.3228Z" fill="#3A2C60"/>
<path d="M87.2683 16.0844L64.8254 9.14317C64.1312 8.92959 63.401 9.05287 62.8176 9.48316C62.2342 9.91346 61.8997 10.5762 61.8997 11.3001V80.069C61.8997 80.7937 62.2342 81.4564 62.8184 81.8859C63.2141 82.178 63.6774 82.328 64.1509 82.328C64.3746 82.328 64.6016 82.2942 64.8246 82.2251L87.2675 75.2847C88.2184 74.9902 88.8575 74.1233 88.8575 73.1269V47.8431C88.8575 47.4097 88.5065 47.0579 88.0723 47.0579C87.6381 47.0579 87.2871 47.4097 87.2871 47.8431V73.1269C87.2871 73.43 87.0924 73.6946 86.8026 73.7833L64.3597 80.7246C64.1501 80.7898 63.9271 80.7521 63.7496 80.621C63.5722 80.4898 63.4701 80.288 63.4701 80.0674V11.3009C63.4701 11.0803 63.5722 10.8785 63.7496 10.7474C63.9271 10.6162 64.1501 10.5777 64.3597 10.6437L86.8026 17.585C87.0924 17.6745 87.2871 17.9383 87.2871 18.2414V34.1027C87.2871 34.5361 87.6381 34.8879 88.0723 34.8879C88.5065 34.8879 88.8575 34.5361 88.8575 34.1027V18.2414C88.8583 17.2458 88.2192 16.3789 87.2683 16.0844Z" fill="#3A2C60"/>
<path d="M88.0734 36.6555C87.6392 36.6555 87.2882 37.0073 87.2882 37.4408V44.4425C87.2882 44.8759 87.6392 45.2277 88.0734 45.2277C88.5076 45.2277 88.8586 44.8759 88.8586 44.4425V37.4408C88.8586 37.0073 88.5076 36.6555 88.0734 36.6555Z" fill="#3A2C60"/>
<path d="M82.7081 25.27H68.0505C67.6163 25.27 67.2653 25.6217 67.2653 26.0552C67.2653 26.4886 67.6163 26.8404 68.0505 26.8404H82.7081C83.1423 26.8404 83.4933 26.4886 83.4933 26.0552C83.4933 25.6217 83.1423 25.27 82.7081 25.27Z" fill="#3A2C60"/>
<path d="M82.708 48.8263H73.0562C72.622 48.8263 72.271 49.1781 72.271 49.6115C72.271 50.045 72.622 50.3967 73.0562 50.3967H82.708C83.1422 50.3967 83.4932 50.045 83.4932 49.6115C83.4932 49.1781 83.1422 48.8263 82.708 48.8263Z" fill="#3A2C60"/>
<path d="M70.3088 48.8263H68.0505C67.6163 48.8263 67.2653 49.1781 67.2653 49.6115C67.2653 50.045 67.6163 50.3967 68.0505 50.3967H70.3088C70.743 50.3967 71.094 50.045 71.094 49.6115C71.094 49.1781 70.743 48.8263 70.3088 48.8263Z" fill="#3A2C60"/>
<path d="M82.708 54.3228H73.0562C72.622 54.3228 72.271 54.6746 72.271 55.108C72.271 55.5414 72.622 55.8932 73.0562 55.8932H82.708C83.1422 55.8932 83.4932 55.5414 83.4932 55.108C83.4932 54.6746 83.1422 54.3228 82.708 54.3228Z" fill="#3A2C60"/>
<path d="M70.3088 54.3228H68.0505C67.6163 54.3228 67.2653 54.6746 67.2653 55.108C67.2653 55.5414 67.6163 55.8932 68.0505 55.8932H70.3088C70.743 55.8932 71.094 55.5414 71.094 55.108C71.094 54.6746 70.743 54.3228 70.3088 54.3228Z" fill="#3A2C60"/>
</g>
<defs>
<clipPath id="clip0_2_703">
<rect width="91.978" height="90" fill="white"/>
</clipPath>
</defs>
</svg>
