<svg width="89" height="81" viewBox="0 0 89 81" fill="none" xmlns="http://www.w3.org/2000/svg">
<path d="M40.8014 42.7807H49.7861C50.1652 48.8715 55.2275 53.7145 61.4117 53.7145C67.8423 53.7145 73.0745 48.4823 73.0745 42.0517C73.0745 35.6212 67.8423 30.389 61.4117 30.389C55.2268 30.389 50.1652 35.2319 49.7861 41.3228H40.8014C40.7191 39.1667 40.2752 37.1031 39.528 35.1882L48.1176 23.7354C50.2257 25.8186 53.1188 27.1088 56.3093 27.1088C62.7398 27.1088 67.972 21.8766 67.972 15.4461C67.972 9.01552 62.7398 3.78331 56.3093 3.78331C49.8787 3.78331 44.6465 9.01552 44.6465 15.4461C44.6465 18.1555 45.5832 20.6455 47.1394 22.6281C47.1278 22.6413 47.1117 22.6478 47.1008 22.6624L38.8538 33.6582C35.7522 27.4084 29.3056 23.0998 21.8677 23.0998C11.4178 23.0998 2.91568 31.6019 2.91568 42.0517C2.91568 52.5023 11.4178 61.0037 21.8677 61.0037C29.3056 61.0037 35.7529 56.6951 38.8538 50.4446L47.1008 61.4411C47.1117 61.4557 47.1292 61.4608 47.1409 61.4739C45.5839 63.4566 44.6472 65.9473 44.6472 68.6574C44.6472 75.088 49.8794 80.3202 56.31 80.3202C62.7406 80.3202 67.9728 75.088 67.9728 68.6574C67.9728 62.2269 62.7406 56.9947 56.31 56.9947C53.1195 56.9947 50.2264 58.2848 48.1184 60.3681L39.528 48.9153C40.2752 47.0004 40.7191 44.9368 40.8014 42.7807Z" fill="#8B98A6"/>
<path d="M72.9636 12.2044H70.5341C70.1318 12.2044 69.8052 12.531 69.8052 12.9333C69.8052 13.3357 70.1318 13.6623 70.5341 13.6623H72.9636C73.366 13.6623 73.6925 13.3357 73.6925 12.9333C73.6925 12.531 73.366 12.2044 72.9636 12.2044Z" fill="#8B98A6"/>
<path d="M75.6359 13.6623H83.8967C84.2991 13.6623 84.6257 13.3357 84.6257 12.9333C84.6257 12.531 84.2991 12.2044 83.8967 12.2044H75.6359C75.2335 12.2044 74.9069 12.531 74.9069 12.9333C74.9069 13.3357 75.2335 13.6623 75.6359 13.6623Z" fill="#8B98A6"/>
<path d="M72.9636 18.0358H70.5341C70.1318 18.0358 69.8052 18.3623 69.8052 18.7647C69.8052 19.1671 70.1318 19.4936 70.5341 19.4936H72.9636C73.366 19.4936 73.6925 19.1671 73.6925 18.7647C73.6925 18.3623 73.366 18.0358 72.9636 18.0358Z" fill="#8B98A6"/>
<path d="M75.6359 19.4936H83.8967C84.2991 19.4936 84.6257 19.1671 84.6257 18.7647C84.6257 18.3623 84.2991 18.0358 83.8967 18.0358H75.6359C75.2335 18.0358 74.9069 18.3623 74.9069 18.7647C74.9069 19.1671 75.2335 19.4936 75.6359 19.4936Z" fill="#8B98A6"/>
<path d="M72.9636 65.4157H70.5341C70.1318 65.4157 69.8052 65.7416 69.8052 66.1446C69.8052 66.5477 70.1318 66.8736 70.5341 66.8736H72.9636C73.366 66.8736 73.6925 66.5477 73.6925 66.1446C73.6925 65.7416 73.366 65.4157 72.9636 65.4157Z" fill="#8B98A6"/>
<path d="M83.8975 65.4157H75.6366C75.2342 65.4157 74.9077 65.7416 74.9077 66.1446C74.9077 66.5477 75.2342 66.8736 75.6366 66.8736H83.8975C84.2998 66.8736 84.6264 66.5477 84.6264 66.1446C84.6264 65.7416 84.2998 65.4157 83.8975 65.4157Z" fill="#8B98A6"/>
<path d="M72.9636 71.2471H70.5341C70.1318 71.2471 69.8052 71.5729 69.8052 71.976C69.8052 72.3791 70.1318 72.7049 70.5341 72.7049H72.9636C73.366 72.7049 73.6925 72.3791 73.6925 71.976C73.6925 71.5729 73.366 71.2471 72.9636 71.2471Z" fill="#8B98A6"/>
<path d="M83.8975 71.2471H75.6366C75.2342 71.2471 74.9077 71.5729 74.9077 71.976C74.9077 72.3791 75.2342 72.7049 75.6366 72.7049H83.8975C84.2998 72.7049 84.6264 72.3791 84.6264 71.976C84.6264 71.5729 84.2998 71.2471 83.8975 71.2471Z" fill="#8B98A6"/>
<path d="M74.907 39.9035H77.3365C77.7388 39.9035 78.0654 39.577 78.0654 39.1746C78.0654 38.7722 77.7388 38.4457 77.3365 38.4457H74.907C74.5046 38.4457 74.178 38.7722 74.178 39.1746C74.178 39.577 74.5046 39.9035 74.907 39.9035Z" fill="#8B98A6"/>
<path d="M79.2804 39.1746C79.2804 39.577 79.607 39.9035 80.0093 39.9035H88.2702C88.6726 39.9035 88.9991 39.577 88.9991 39.1746C88.9991 38.7722 88.6726 38.4457 88.2702 38.4457H80.0093C79.607 38.4457 79.2804 38.7722 79.2804 39.1746Z" fill="#8B98A6"/>
<path d="M77.3372 45.7349C77.7396 45.7349 78.0661 45.4091 78.0661 45.006C78.0661 44.6029 77.7396 44.277 77.3372 44.277H74.9077C74.5053 44.277 74.1788 44.6029 74.1788 45.006C74.1788 45.4091 74.5053 45.7349 74.9077 45.7349H77.3372Z" fill="#8B98A6"/>
<path d="M88.271 44.277H80.0102C79.6078 44.277 79.2812 44.6029 79.2812 45.006C79.2812 45.4091 79.6078 45.7349 80.0102 45.7349H88.271C88.6734 45.7349 89 45.4091 89 45.006C89 44.6029 88.6734 44.277 88.271 44.277Z" fill="#8B98A6"/>
<path d="M18.952 57.3593C29.0163 57.3593 37.175 49.2005 37.175 39.1362C37.175 29.0719 29.0163 20.9131 18.952 20.9131C8.88764 20.9131 0.728897 29.0719 0.728897 39.1362C0.728897 49.2005 8.88764 57.3593 18.952 57.3593Z" fill="#0089EF"/>
<path d="M58.496 50.07C64.5346 50.07 69.4299 45.1747 69.4299 39.1361C69.4299 33.0975 64.5346 28.2023 58.496 28.2023C52.4574 28.2023 47.5622 33.0975 47.5622 39.1361C47.5622 45.1747 52.4574 50.07 58.496 50.07Z" fill="#FA759E"/>
<path d="M53.3936 23.4644C59.4321 23.4644 64.3274 18.5692 64.3274 12.5306C64.3274 6.49199 59.4321 1.59674 53.3936 1.59674C47.355 1.59674 42.4597 6.49199 42.4597 12.5306C42.4597 18.5692 47.355 23.4644 53.3936 23.4644Z" fill="#E6E6E6"/>
<path d="M53.3936 23.4644C59.4016 23.4644 64.272 19.0587 64.272 13.624C64.272 8.18925 59.4016 3.78352 53.3936 3.78352C47.3856 3.78352 42.5152 8.18925 42.5152 13.624C42.5152 19.0587 47.3856 23.4644 53.3936 23.4644Z" fill="#6DC9F7"/>
<path d="M53.3935 76.6757C59.4321 76.6757 64.3274 71.7805 64.3274 65.7419C64.3274 59.7033 59.4321 54.808 53.3935 54.808C47.355 54.808 42.4597 59.7033 42.4597 65.7419C42.4597 71.7805 47.355 76.6757 53.3935 76.6757Z" fill="#FFD7E5"/>
<path d="M5.7258 27.3299C5.91897 27.3299 6.1114 27.2541 6.255 27.1024C7.09399 26.2175 8.02774 25.4179 9.03001 24.7262C9.36167 24.498 9.44477 24.0439 9.21589 23.7122C8.98773 23.3806 8.53288 23.296 8.20195 23.5263C7.11659 24.275 6.10557 25.1409 5.19733 26.0987C4.92034 26.391 4.93274 26.8524 5.22503 27.1294C5.36499 27.2635 5.54576 27.3299 5.7258 27.3299Z" fill="#3A2C60"/>
<path d="M37.8858 39.8651H46.8705C47.2495 45.956 52.3119 50.7989 58.496 50.7989C64.9266 50.7989 70.1588 45.5667 70.1588 39.1362C70.1588 32.7056 64.9266 27.4734 58.496 27.4734C52.3111 27.4734 47.2495 32.3164 46.8705 38.4072H37.8858C37.8034 36.2511 37.3595 34.1875 36.6123 32.2726L45.202 20.8198C47.31 22.9031 50.2031 24.1933 53.3936 24.1933C59.8241 24.1933 65.0563 18.9611 65.0563 12.5305C65.0563 6.09994 59.8241 0.867737 53.3936 0.867737C46.963 0.867737 41.7308 6.09994 41.7308 12.5305C41.7308 15.2399 42.6675 17.7299 44.2237 19.7126C44.2121 19.7257 44.196 19.7323 44.1851 19.7468L35.9381 30.7426C32.8365 24.4928 26.3899 20.1842 18.952 20.1842C16.1814 20.1842 13.5113 20.7688 11.014 21.9219C10.6488 22.0903 10.4892 22.524 10.6583 22.8892C10.8267 23.2551 11.2611 23.4148 11.6256 23.2449C13.929 22.1814 16.3942 21.642 18.952 21.642C28.5978 21.642 36.4461 29.4903 36.4461 39.1362C36.4461 48.782 28.5978 56.6303 18.952 56.6303C9.30616 56.6303 1.45785 48.782 1.45785 39.1362C1.45785 35.6301 2.49073 32.2486 4.4457 29.3555C4.67094 29.0216 4.58347 28.5683 4.24962 28.343C3.9165 28.1178 3.46311 28.206 3.23787 28.5391C1.11963 31.6742 0 35.3385 0 39.1362C0 49.5867 8.50215 58.0882 18.952 58.0882C26.3899 58.0882 32.8372 53.7795 35.9381 47.529L44.1851 58.5255C44.196 58.5401 44.2135 58.5452 44.2252 58.5583C42.6682 60.541 41.7316 63.0317 41.7316 65.7418C41.7316 72.1724 46.9638 77.4046 53.3943 77.4046C59.8249 77.4046 65.0571 72.1724 65.0571 65.7418C65.0571 59.3113 59.8249 54.0791 53.3943 54.0791C50.2038 54.0791 47.3107 55.3693 45.2027 57.4525L36.6123 45.9997C37.3595 44.0848 37.8034 42.0212 37.8858 39.8651ZM53.3936 2.32558C59.0209 2.32558 63.5985 6.90322 63.5985 12.5305C63.5985 18.1578 59.0209 22.7354 53.3936 22.7354C47.7663 22.7354 43.1887 18.1578 43.1887 12.5305C43.1887 6.90322 47.7663 2.32558 53.3936 2.32558ZM53.3936 55.5369C59.0209 55.5369 63.5985 60.1146 63.5985 65.7418C63.5985 71.3691 59.0209 75.9468 53.3936 75.9468C47.7663 75.9468 43.1887 71.3691 43.1887 65.7418C43.1887 60.1146 47.7663 55.5369 53.3936 55.5369ZM58.496 28.9313C64.1233 28.9313 68.701 33.5089 68.701 39.1362C68.701 44.7635 64.1233 49.3411 58.496 49.3411C52.8688 49.3411 48.2911 44.7635 48.2911 39.1362C48.2911 33.5089 52.8688 28.9313 58.496 28.9313Z" fill="#3A2C60"/>
<path d="M53.2113 39.8651H63.7807C64.1831 39.8651 64.5096 39.5385 64.5096 39.1361C64.5096 38.7338 64.1831 38.4072 63.7807 38.4072H53.2113C52.809 38.4072 52.4824 38.7338 52.4824 39.1361C52.4824 39.5385 52.809 39.8651 53.2113 39.8651Z" fill="#3A2C60"/>
<path d="M48.1089 13.2593H58.6782C59.0806 13.2593 59.4072 12.9328 59.4072 12.5304C59.4072 12.128 59.0806 11.8015 58.6782 11.8015H48.1089C47.7065 11.8015 47.3799 12.128 47.3799 12.5304C47.3799 12.9328 47.7065 13.2593 48.1089 13.2593Z" fill="#3A2C60"/>
<path d="M48.1089 66.4708H58.6782C59.0806 66.4708 59.4072 66.145 59.4072 65.7419C59.4072 65.3388 59.0806 65.013 58.6782 65.013H48.1089C47.7065 65.013 47.3799 65.3388 47.3799 65.7419C47.3799 66.145 47.7065 66.4708 48.1089 66.4708Z" fill="#3A2C60"/>
<path d="M70.0479 9.28885H67.6184C67.2161 9.28885 66.8895 9.61541 66.8895 10.0178C66.8895 10.4201 67.2161 10.7467 67.6184 10.7467H70.0479C70.4503 10.7467 70.7769 10.4201 70.7769 10.0178C70.7769 9.61541 70.4503 9.28885 70.0479 9.28885Z" fill="#3A2C60"/>
<path d="M72.7202 10.7467H80.981C81.3834 10.7467 81.71 10.4201 81.71 10.0178C81.71 9.61541 81.3834 9.28885 80.981 9.28885H72.7202C72.3178 9.28885 71.9912 9.61541 71.9912 10.0178C71.9912 10.4201 72.3178 10.7467 72.7202 10.7467Z" fill="#3A2C60"/>
<path d="M70.0479 15.1202H67.6184C67.2161 15.1202 66.8895 15.4468 66.8895 15.8491C66.8895 16.2515 67.2161 16.5781 67.6184 16.5781H70.0479C70.4503 16.5781 70.7769 16.2515 70.7769 15.8491C70.7769 15.4468 70.4503 15.1202 70.0479 15.1202Z" fill="#3A2C60"/>
<path d="M72.7202 16.5781H80.981C81.3834 16.5781 81.71 16.2515 81.71 15.8491C81.71 15.4468 81.3834 15.1202 80.981 15.1202H72.7202C72.3178 15.1202 71.9912 15.4468 71.9912 15.8491C71.9912 16.2515 72.3178 16.5781 72.7202 16.5781Z" fill="#3A2C60"/>
<path d="M70.0479 62.5002H67.6184C67.2161 62.5002 66.8895 62.826 66.8895 63.2291C66.8895 63.6322 67.2161 63.958 67.6184 63.958H70.0479C70.4503 63.958 70.7769 63.6322 70.7769 63.2291C70.7769 62.826 70.4503 62.5002 70.0479 62.5002Z" fill="#3A2C60"/>
<path d="M80.9818 62.5002H72.7209C72.3185 62.5002 71.992 62.826 71.992 63.2291C71.992 63.6322 72.3185 63.958 72.7209 63.958H80.9818C81.3842 63.958 81.7107 63.6322 81.7107 63.2291C81.7107 62.826 81.3842 62.5002 80.9818 62.5002Z" fill="#3A2C60"/>
<path d="M70.0479 68.3315H67.6184C67.2161 68.3315 66.8895 68.6573 66.8895 69.0604C66.8895 69.4635 67.2161 69.7894 67.6184 69.7894H70.0479C70.4503 69.7894 70.7769 69.4635 70.7769 69.0604C70.7769 68.6573 70.4503 68.3315 70.0479 68.3315Z" fill="#3A2C60"/>
<path d="M80.9818 68.3315H72.7209C72.3185 68.3315 71.992 68.6573 71.992 69.0604C71.992 69.4635 72.3185 69.7894 72.7209 69.7894H80.9818C81.3842 69.7894 81.7107 69.4635 81.7107 69.0604C81.7107 68.6573 81.3842 68.3315 80.9818 68.3315Z" fill="#3A2C60"/>
<path d="M71.9913 36.9879H74.4208C74.8231 36.9879 75.1497 36.6614 75.1497 36.259C75.1497 35.8566 74.8231 35.5301 74.4208 35.5301H71.9913C71.5889 35.5301 71.2624 35.8566 71.2624 36.259C71.2624 36.6614 71.5889 36.9879 71.9913 36.9879Z" fill="#3A2C60"/>
<path d="M76.3647 36.259C76.3647 36.6614 76.6913 36.9879 77.0936 36.9879H85.3545C85.7569 36.9879 86.0834 36.6614 86.0834 36.259C86.0834 35.8566 85.7569 35.5301 85.3545 35.5301H77.0936C76.6913 35.5301 76.3647 35.8566 76.3647 36.259Z" fill="#3A2C60"/>
<path d="M74.4215 42.8193C74.8239 42.8193 75.1504 42.4935 75.1504 42.0904C75.1504 41.6873 74.8239 41.3615 74.4215 41.3615H71.992C71.5896 41.3615 71.2631 41.6873 71.2631 42.0904C71.2631 42.4935 71.5896 42.8193 71.992 42.8193H74.4215Z" fill="#3A2C60"/>
<path d="M85.3554 41.3615H77.0945C76.6921 41.3615 76.3656 41.6873 76.3656 42.0904C76.3656 42.4935 76.6921 42.8193 77.0945 42.8193H85.3554C85.7577 42.8193 86.0843 42.4935 86.0843 42.0904C86.0843 41.6873 85.7577 41.3615 85.3554 41.3615Z" fill="#3A2C60"/>
</svg>
