<svg width="74" height="74" viewBox="0 0 74 74" fill="none" xmlns="http://www.w3.org/2000/svg">
<path d="M18.2215 4.58356C14.1515 7.95183 10.8215 12.0686 8.60146 16.5596C6.38146 21.7992 4.90146 27.0387 4.53146 32.2783H11.1915C11.9315 23.2962 16.0015 15.0626 23.0315 9.8231L18.2215 4.58356Z" fill="#8B98A6"/>
<path d="M45.6015 66.7095C45.6015 67.458 45.6015 68.5808 45.2315 69.3293C44.4915 71.5748 42.6415 73.0718 40.4215 73.4461C40.0515 73.4461 39.6815 73.4461 39.3115 73.4461C35.6115 73.4461 32.6515 70.4521 32.2815 66.7095H45.6015Z" fill="#8B98A6"/>
<path d="M65.9515 56.6047V63.3413H11.5615V56.6047L18.2215 53.2364V34.1495C18.2215 29.2842 18.9615 24.419 21.1815 20.3022C23.4015 16.1854 27.1015 13.5656 31.5415 12.4429V4.58356H45.2315V12.0686C54.1115 14.3141 58.9215 21.7992 58.9215 33.7753V52.8622L65.9515 56.6047Z" fill="#8B98A6"/>
<path d="M72.6115 32.2783H65.9515C65.5815 23.2962 61.5115 15.0626 54.4815 9.44884L59.2915 4.58356C63.3615 7.95183 66.6915 12.0686 68.9115 16.5596C71.1315 21.7992 72.6115 27.0387 72.6115 32.2783Z" fill="#8B98A6"/>
<path d="M15.54 2.24554C11.47 5.61382 8.14 9.7306 5.92 14.2216C3.7 19.0869 2.22 24.3265 2.22 29.566H8.88C9.25 20.5839 13.32 12.3504 20.35 6.73658L15.54 2.24554Z" fill="#0089EF" stroke="#3A2C60" stroke-width="2" stroke-miterlimit="10" stroke-linecap="round" stroke-linejoin="round"/>
<path d="M42.92 64.3715C42.92 65.12 42.92 66.2428 42.55 66.9913C41.81 69.2368 39.96 70.7338 37.74 71.1081C37.37 71.1081 37 71.1081 36.63 71.1081C32.93 71.1081 29.97 68.1141 29.6 64.3715H42.92Z" fill="#0089EF" stroke="#3A2C60" stroke-width="2" stroke-miterlimit="10" stroke-linecap="round" stroke-linejoin="round"/>
<path d="M63.64 53.8924V60.629H8.88V53.8924L15.54 50.5242V31.4373C15.54 26.572 16.28 21.7067 18.5 17.5899C21.09 13.4731 25.16 10.4791 29.6 9.7306V2.24554H43.29V9.7306C52.17 11.9761 56.98 19.4612 56.98 31.4373V50.5242L63.64 53.8924Z" fill="#0089EF" stroke="#3A2C60" stroke-width="2" stroke-miterlimit="10" stroke-linecap="round" stroke-linejoin="round"/>
<path d="M70.3 29.566H63.64C63.27 20.5839 59.2 12.3504 52.17 6.73657L56.98 1.87128C61.05 5.23955 64.38 9.35634 66.6 13.8474C68.82 19.0869 69.93 24.3265 70.3 29.566Z" fill="#0089EF" stroke="#3A2C60" stroke-width="2" stroke-miterlimit="10" stroke-linecap="round" stroke-linejoin="round"/>
</svg>
