<svg width="93" height="91" viewBox="0 0 93 91" fill="none" xmlns="http://www.w3.org/2000/svg">
<path d="M64.7555 27.876C60.1629 23.2684 54.0778 20.7342 47.6481 20.7342C41.2185 20.7342 35.1333 23.2684 30.5407 27.876C25.9481 32.4835 23.4222 38.5886 23.4222 45.0392C23.4222 51.4899 25.9481 57.5949 30.5407 62.2025C35.1333 66.8101 41.2185 69.3443 47.6481 69.3443C54.0778 69.3443 60.1629 66.8101 64.7555 62.2025C69.3481 57.5949 71.8741 51.4899 71.8741 45.0392C71.8741 38.5886 69.3481 32.3684 64.7555 27.876ZM63.7222 61.0506C59.4741 65.3127 53.7333 67.7316 47.6481 67.7316C41.563 67.7316 35.937 65.3127 31.5741 61.0506C27.3259 56.7886 24.9148 51.0291 24.9148 44.9241C24.9148 38.819 27.3259 33.1747 31.5741 28.7975C35.8222 24.5354 41.563 22.1165 47.6481 22.1165C53.7333 22.1165 59.3592 24.5354 63.7222 28.7975C67.9704 33.0595 70.3815 38.819 70.3815 44.9241C70.3815 51.0291 67.9704 56.7886 63.7222 61.0506ZM48.4518 30.4101H46.9592V26.3785H48.4518V30.4101ZM46.8444 59.5532H48.337V63.5848H46.8444V59.5532ZM33.0667 45.7304H29.0481V44.2329H33.0667V45.7304ZM66.2481 44.2329V45.7304H62.2296V44.2329H66.2481ZM38.9222 31.3316L37.6592 29.2582L38.9222 28.4519L40.1852 30.5253L38.9222 31.3316ZM56.3741 58.6317L57.637 60.7051L56.2592 61.5114L55.1111 59.3228L56.3741 58.6317ZM33.2963 52.4114L34.1 53.6785L32.0333 54.9456L31.2296 53.6785L33.2963 52.4114ZM62 37.5519L61.1963 36.2848L63.2629 35.0177L64.0667 36.2848L62 37.5519ZM56.3741 31.3316L55.1111 30.5253L56.3741 28.4519L57.637 29.2582L56.3741 31.3316ZM38.9222 58.6317L40.1852 59.438L39.037 61.5114L37.7741 60.7051L38.9222 58.6317ZM62 52.4114L64.0667 53.6785L63.2629 54.9456L61.1963 53.6785L62 52.4114ZM31.9185 35.0177L33.9852 36.2848L33.2963 37.5519L31.2296 36.2848L31.9185 35.0177ZM50.0592 44.9241C50.0592 43.8873 49.3704 42.9658 48.4518 42.6203V31.9076H46.9592V42.6203C46.0407 42.9658 45.3518 43.7722 45.3518 44.9241C45.3518 46.1911 46.3852 47.343 47.7629 47.343C48.337 47.343 48.9111 47.1127 49.3704 46.7671L58.6704 52.0658L59.4741 50.7987L50.1741 45.5C50.0592 45.2696 50.0592 45.1544 50.0592 44.9241ZM47.6481 45.8456C47.1889 45.8456 46.8444 45.5 46.8444 45.0392C46.8444 44.5785 47.1889 44.2329 47.6481 44.2329C48.1074 44.2329 48.4518 44.5785 48.4518 45.0392C48.4518 45.5 48.1074 45.8456 47.6481 45.8456ZM47.6481 24.7658C36.5111 24.7658 27.5555 33.8658 27.5555 44.9241C27.5555 55.9823 36.6259 65.0823 47.6481 65.0823C58.7852 65.1975 67.7407 56.0975 67.7407 44.9241C67.7407 33.7506 58.7852 24.7658 47.6481 24.7658ZM47.6481 63.7C37.4296 63.7 29.0481 55.2911 29.0481 45.0392C29.0481 34.7873 37.4296 26.3785 47.6481 26.3785C57.8667 26.3785 66.2481 34.6722 66.2481 44.9241C66.2481 55.176 57.8667 63.7 47.6481 63.7Z" fill="#8B98A6"/>
<path d="M84.2741 44.8089C84.2741 65.0823 67.8555 81.5544 47.6481 81.5544C41.7926 81.5544 36.0518 80.1722 30.8852 77.5228L31.5741 79.3658C31.9185 80.4025 31.3444 81.5544 30.4259 81.9C30.1963 82.0152 29.9666 82.0152 29.737 82.0152C28.9333 82.0152 28.1296 81.5544 27.9 80.7481L25.7185 74.4127C25.3741 73.3759 25.9481 72.2241 26.8666 71.8785L33.1815 69.6899C34.2148 69.3443 35.3629 69.8051 35.7074 70.8418C36.0518 71.8785 35.5926 73.0304 34.5592 73.3759L32.837 73.9519C37.4296 76.3709 42.5963 77.638 47.8778 77.638C65.6741 77.638 80.3704 62.8937 80.3704 44.8089C80.3704 40.7772 79.6815 36.9759 78.3037 33.2899C77.9592 32.2532 78.4185 31.1013 79.4518 30.7557C80.4852 30.4101 81.6333 30.8709 81.9778 31.9076C83.4704 35.9392 84.2741 40.3165 84.2741 44.8089Z" fill="#8B98A6"/>
<path d="M78.3037 17.5089V24.1899C78.3037 25.2266 77.3852 26.1481 76.3518 26.1481H69.6926C68.6593 26.1481 67.7407 25.2266 67.7407 24.1899C67.7407 23.1532 68.6593 22.2316 69.6926 22.2316H71.4148C65.2148 15.6658 56.7185 11.9797 47.6481 11.9797C29.6222 11.8646 14.9259 26.6089 14.9259 44.8089C14.9259 52.757 17.7963 60.4747 23.0778 66.4646C23.7667 67.2709 23.7667 68.538 22.8481 69.2291C22.5037 69.5747 22.0444 69.6899 21.5852 69.6899C21.0111 69.6899 20.5518 69.4595 20.0926 68.9987C14.237 62.3177 11.0222 53.6785 11.0222 44.6937C11.0222 24.4203 27.4407 7.9481 47.6481 7.9481C57.8667 7.9481 67.5111 12.2101 74.4 19.5823V17.3937C74.4 16.357 75.3185 15.4354 76.3518 15.4354C77.5 15.5506 78.3037 16.357 78.3037 17.5089Z" fill="#8B98A6"/>
<path d="M63.6074 26.724C59.0148 22.1165 52.9296 19.5823 46.5 19.5823C40.0704 19.5823 33.9852 22.1165 29.3926 26.724C24.8 31.3316 22.2741 37.4367 22.2741 43.8873C22.2741 50.338 24.8 56.443 29.3926 61.0506C33.9852 65.6582 40.0704 68.1924 46.5 68.1924C52.9296 68.1924 59.0148 65.6582 63.6074 61.0506C68.2 56.443 70.7259 50.338 70.7259 43.8873C70.7259 37.4367 68.2 31.2165 63.6074 26.724ZM62.5741 59.8987C58.3259 64.1608 52.5852 66.5797 46.5 66.5797C40.4148 66.5797 34.7889 64.1608 30.4259 59.8987C26.1778 55.6367 23.7667 49.8772 23.7667 43.7721C23.7667 37.6671 26.1778 32.0228 30.4259 27.6456C34.6741 23.3835 40.4148 20.9646 46.5 20.9646C52.5852 20.9646 58.2111 23.3835 62.5741 27.6456C66.8222 31.9076 69.2333 37.6671 69.2333 43.7721C69.2333 49.8772 66.8222 55.6367 62.5741 59.8987ZM47.3037 29.2582H45.8111V25.2266H47.3037V29.2582ZM45.6963 58.4013H47.1889V62.4329H45.6963V58.4013ZM31.9185 44.5785H27.9V43.081H31.9185V44.5785ZM65.1 43.081V44.5785H61.0815V43.081H65.1ZM37.7741 30.1797L36.5111 28.1063L37.7741 27.3L39.037 29.3734L37.7741 30.1797ZM55.2259 57.4797L56.4889 59.5532L55.1111 60.3595L53.963 58.1709L55.2259 57.4797ZM32.1482 51.2595L32.9519 52.5266L30.8852 53.7937L30.0815 52.5266L32.1482 51.2595ZM60.8519 36.4L60.0482 35.1329L62.1148 33.8658L62.9185 35.1329L60.8519 36.4ZM55.2259 30.1797L53.963 29.3734L55.2259 27.3L56.4889 28.1063L55.2259 30.1797ZM37.7741 57.4797L39.037 58.2861L37.8889 60.3595L36.6259 59.5532L37.7741 57.4797ZM60.8519 51.2595L62.9185 52.5266L62.1148 53.7937L60.0482 52.5266L60.8519 51.2595ZM30.7704 33.8658L32.837 35.1329L32.1482 36.4L30.0815 35.1329L30.7704 33.8658ZM48.9111 43.7721C48.9111 42.7354 48.2222 41.8139 47.3037 41.4684V30.7557H45.8111V41.4684C44.8926 41.8139 44.2037 42.6203 44.2037 43.7721C44.2037 45.0392 45.237 46.1911 46.6148 46.1911C47.1889 46.1911 47.763 45.9608 48.2222 45.6152L57.5222 50.9139L58.3259 49.6468L49.0259 44.3481C48.9111 44.1177 48.9111 44.0025 48.9111 43.7721ZM46.5 44.6937C46.0407 44.6937 45.6963 44.3481 45.6963 43.8873C45.6963 43.4266 46.0407 43.081 46.5 43.081C46.9593 43.081 47.3037 43.4266 47.3037 43.8873C47.3037 44.3481 46.9593 44.6937 46.5 44.6937ZM46.5 23.6139C35.363 23.6139 26.4074 32.7139 26.4074 43.7721C26.4074 54.8304 35.4778 63.9304 46.5 63.9304C57.637 64.0456 66.5926 54.9456 66.5926 43.7721C66.5926 32.5987 57.637 23.6139 46.5 23.6139ZM46.5 62.5481C36.2815 62.5481 27.9 54.1392 27.9 43.8873C27.9 33.6354 36.2815 25.2266 46.5 25.2266C56.7185 25.2266 65.1 33.5203 65.1 43.7721C65.1 54.024 56.7185 62.5481 46.5 62.5481Z" fill="#0089EF" stroke="#3A2C60" stroke-miterlimit="10"/>
<path d="M83.1259 43.657C83.1259 63.9304 66.7074 80.4025 46.5 80.4025C40.6444 80.4025 34.9037 79.0203 29.737 76.3709L30.4259 78.2139C30.7704 79.2506 30.1963 80.4025 29.2778 80.7481C29.0481 80.8633 28.8185 80.8633 28.5889 80.8633C27.7852 80.8633 26.9815 80.4025 26.7518 79.5962L24.5704 73.2608C24.2259 72.224 24.8 71.0722 25.7185 70.7266L32.0333 68.538C33.0667 68.1924 34.2148 68.6532 34.5593 69.6899C34.9037 70.7266 34.4444 71.8785 33.4111 72.2241L31.6889 72.8C36.2815 75.219 41.4481 76.4861 46.7296 76.4861C64.5259 76.4861 79.2222 61.7418 79.2222 43.657C79.2222 39.6253 78.5333 35.824 77.1555 32.138C76.8111 31.1013 77.2704 29.9494 78.3037 29.6038C79.337 29.2582 80.4852 29.719 80.8296 30.7557C82.3222 34.7873 83.1259 39.1646 83.1259 43.657Z" fill="#0089EF" stroke="#3A2C60" stroke-width="2" stroke-miterlimit="10"/>
<path d="M77.1556 16.357V23.038C77.1556 24.0747 76.2371 24.9962 75.2037 24.9962H68.5445C67.5111 24.9962 66.5926 24.0747 66.5926 23.038C66.5926 22.0013 67.5111 21.0797 68.5445 21.0797H70.2667C64.0667 14.5139 55.5704 10.8278 46.5 10.8278C28.4741 10.7127 13.7778 25.457 13.7778 43.657C13.7778 51.6051 16.6482 59.3228 21.9296 65.3127C22.6185 66.119 22.6185 67.3861 21.7 68.0772C21.3556 68.4228 20.8963 68.538 20.437 68.538C19.863 68.538 19.4037 68.3076 18.9445 67.8468C13.0889 61.1658 9.87408 52.5266 9.87408 43.5418C9.87408 23.2684 26.2926 6.7962 46.5 6.7962C56.7185 6.7962 66.363 11.0582 73.2519 18.4304V16.2418C73.2519 15.2051 74.1704 14.2835 75.2037 14.2835C76.3519 14.3987 77.1556 15.2051 77.1556 16.357Z" fill="#0089EF" stroke="#3A2C60" stroke-width="2" stroke-miterlimit="10"/>
</svg>
