<svg width="76" height="76" viewBox="0 0 76 76" fill="none" xmlns="http://www.w3.org/2000/svg">
<g clip-path="url(#clip0_225_184)">
<path d="M70.7761 13.2738C60.5947 12.789 50.4133 9.39518 42.1713 3.57724C41.6864 3.09242 41.2016 3.09242 40.7168 3.57724C32.4747 9.39518 22.2933 13.2738 12.112 13.2738C11.6271 13.2738 11.1423 13.7586 11.1423 14.2435V38.4848C11.1423 56.4235 23.263 71.9379 41.2016 76.3014H41.6864C59.1402 71.9379 71.7457 56.4235 71.7457 38.4848V14.2435C71.7457 13.7586 71.2609 13.2738 70.7761 13.2738ZM69.3216 38.4848C69.3216 55.4538 58.1706 69.9986 41.6864 73.8773H41.2016C24.7175 69.9986 13.5664 55.4538 13.5664 38.4848V16.6676C13.5664 16.1828 14.0513 15.6979 14.5361 15.6979C23.7478 14.7283 32.9595 11.8193 40.7168 6.48621C41.2016 6.00138 41.6864 6.00138 42.1713 6.48621C49.9285 11.8193 59.1402 15.2131 68.3519 15.6979C68.8368 15.6979 69.3216 16.1828 69.3216 16.6676V38.4848V38.4848Z" fill="#8B98A6"/>
<path d="M53.2201 34.3413C52.145 34.3413 51.6074 33.8081 51.6074 32.7416V28.4759C51.6074 23.1438 47.3068 18.3448 41.931 18.3448H41.3934C36.0177 18.3448 31.7171 22.6106 31.7171 28.4759V32.7416C31.7171 33.8081 31.1795 34.3413 30.1043 34.3413H29.5667C28.4916 34.3413 27.954 34.8745 27.954 35.9409V57.8027C27.954 58.8691 28.4916 59.4023 29.5667 59.4023H54.2953C55.3705 59.4023 55.908 58.8691 55.908 57.8027V35.9409C55.908 34.8745 55.3705 34.3413 54.2953 34.3413H53.2201ZM46.2316 34.3413H36.5552C35.4801 34.3413 34.9425 33.8081 34.9425 32.7416V28.4759C34.9425 25.2766 37.6304 22.6106 40.8559 22.6106H41.3934C44.6189 22.6106 47.3068 25.2766 47.3068 28.4759V32.7416C47.8444 33.8081 47.3068 34.3413 46.2316 34.3413Z" fill="#8B98A6"/>
<path d="M68.8368 11.3345C58.6554 10.8496 48.4741 7.45584 40.232 1.63791C39.7472 1.15309 39.2623 1.15309 38.7775 1.63791C30.5354 7.45584 20.3541 11.3345 10.1727 11.3345C9.68785 11.3345 9.20302 11.8193 9.20302 12.3041V36.5455C9.20302 54.4841 21.3237 69.9986 39.2623 74.3621H39.7472C57.2009 69.9986 69.8065 54.4841 69.8065 36.5455V12.3041C69.8065 11.8193 69.3216 11.3345 68.8368 11.3345ZM67.3823 36.5455C67.3823 53.5145 56.2313 68.0593 39.7472 71.9379H39.2623C22.7782 68.0593 11.6272 53.5145 11.6272 36.5455V14.7283C11.6272 14.2434 12.112 13.7586 12.5968 13.7586C21.8085 12.3041 31.0203 9.39515 38.7775 4.06205C39.2623 3.57722 39.7472 3.57722 40.232 4.06205C47.9892 9.39515 57.2009 12.7889 66.4127 13.2738C66.8975 13.2738 67.3823 13.7586 67.3823 14.2434V36.5455V36.5455Z" fill="#3A2C60" stroke="#3A2C60" stroke-width="2" stroke-miterlimit="10"/>
<path d="M51.0949 32.1355C49.9987 32.1355 49.4506 31.5997 49.4506 30.5281V26.7776C49.4506 21.4198 45.0656 16.5977 39.0363 16.5977C33.5551 16.5977 28.6221 20.884 28.6221 26.7776V30.5281C28.6221 31.5997 28.0739 32.1355 26.9777 32.1355C25.8815 32.1355 25.3334 32.6713 25.3334 33.7429V55.1743C25.3334 56.2458 25.8815 56.7816 26.9777 56.7816H51.643C52.7393 56.7816 53.2874 56.2458 53.2874 55.1743V33.7429C53.2874 32.6713 52.7393 32.1355 51.643 32.1355H51.0949ZM43.9694 32.1355H34.1032C33.007 32.1355 32.4589 31.5997 32.4589 30.5281V26.2419C32.4589 23.0271 35.1995 20.3482 38.4882 20.3482H39.5844C42.8731 20.3482 45.6137 23.0271 45.6137 26.2419V30.5281C45.6137 31.0639 45.0656 32.1355 43.9694 32.1355Z" fill="#0089EF" stroke="#3A2C60" stroke-width="2" stroke-miterlimit="10"/>
</g>
<defs>
<clipPath id="clip0_225_184">
<rect width="76" height="76" fill="white"/>
</clipPath>
</defs>
</svg>
