<svg width="24" height="25" viewBox="0 0 24 25" fill="none" xmlns="http://www.w3.org/2000/svg">
<path d="M9 3.5C6.23858 3.5 4 5.73858 4 8.5C4 11.2614 6.23858 13.5 9 13.5C11.7614 13.5 14 11.2614 14 8.5C14 5.73858 11.7614 3.5 9 3.5ZM6 8.5C6 6.84315 7.34315 5.5 9 5.5C10.6569 5.5 12 6.84315 12 8.5C12 10.1569 10.6569 11.5 9 11.5C7.34315 11.5 6 10.1569 6 8.5Z" fill="#F5F5F5"/>
<path d="M16.9084 8.71828C16.6271 8.57484 16.3158 8.50006 16 8.50006V6.50006C16.6316 6.50006 17.2542 6.64956 17.8169 6.93645C17.8789 6.96805 17.9399 7.00121 18 7.0359C18.4854 7.31614 18.9072 7.69569 19.2373 8.15055C19.6083 8.66172 19.8529 9.25347 19.9512 9.87737C20.0496 10.5013 19.9987 11.1396 19.8029 11.7401C19.6071 12.3405 19.2719 12.8861 18.8247 13.3321C18.3775 13.7782 17.8311 14.1119 17.2301 14.3062C16.6953 14.479 16.1308 14.537 15.5735 14.4772C15.5046 14.4698 15.4357 14.4606 15.367 14.4496C14.7438 14.3497 14.1531 14.1038 13.6431 13.7319L13.6421 13.7311L14.821 12.1156C15.0761 12.3017 15.3717 12.4248 15.6835 12.4747C15.9953 12.5247 16.3145 12.5001 16.615 12.403C16.9155 12.3059 17.1887 12.139 17.4123 11.916C17.6359 11.693 17.8035 11.4202 17.9014 11.12C17.9993 10.8198 18.0247 10.5006 17.9756 10.1887C17.9264 9.87675 17.8041 9.58089 17.6186 9.32531C17.4331 9.06974 17.1898 8.86172 16.9084 8.71828Z" fill="#F5F5F5"/>
<path d="M19.9981 21.5C19.9981 20.975 19.8947 20.4551 19.6938 19.97C19.4928 19.4849 19.1983 19.0442 18.8271 18.6729C18.4558 18.3017 18.0151 18.0072 17.53 17.8062C17.0449 17.6053 16.525 17.5019 16 17.5019V15.5C16.6821 15.5 17.3584 15.6163 18 15.8431C18.0996 15.8783 18.1983 15.9162 18.2961 15.9567C19.0241 16.2583 19.6855 16.7002 20.2426 17.2574C20.7998 17.8145 21.2417 18.4759 21.5433 19.2039C21.5838 19.3017 21.6217 19.4004 21.6569 19.5C21.8837 20.1416 22 20.8179 22 21.5H19.9981Z" fill="#F5F5F5"/>
<path d="M16 21.5H14C14 18.7386 11.7614 16.5 9 16.5C6.23858 16.5 4 18.7386 4 21.5H2C2 17.634 5.13401 14.5 9 14.5C12.866 14.5 16 17.634 16 21.5Z" fill="#F5F5F5"/>
</svg>
