<svg width="405" height="60" viewBox="0 0 405 60" fill="none" xmlns="http://www.w3.org/2000/svg">
<path d="M82.776 35.24C81.416 35.24 80.16 35.072 79.008 34.736C77.872 34.384 76.896 33.904 76.08 33.296L77.04 30.872C77.584 31.256 78.152 31.584 78.744 31.856C79.336 32.112 79.968 32.312 80.64 32.456C81.312 32.584 82.024 32.648 82.776 32.648C84.04 32.648 84.952 32.44 85.512 32.024C86.072 31.608 86.352 31.064 86.352 30.392C86.352 29.8 86.16 29.352 85.776 29.048C85.392 28.728 84.704 28.464 83.712 28.256L81 27.704C79.448 27.384 78.288 26.848 77.52 26.096C76.752 25.344 76.368 24.336 76.368 23.072C76.368 22.016 76.648 21.096 77.208 20.312C77.768 19.528 78.552 18.92 79.56 18.488C80.568 18.056 81.744 17.84 83.088 17.84C84.288 17.84 85.4 18.016 86.424 18.368C87.448 18.704 88.304 19.192 88.992 19.832L88.032 22.136C87.344 21.56 86.592 21.136 85.776 20.864C84.96 20.576 84.048 20.432 83.04 20.432C81.904 20.432 81.016 20.656 80.376 21.104C79.752 21.536 79.44 22.136 79.44 22.904C79.44 23.496 79.632 23.968 80.016 24.32C80.416 24.672 81.088 24.944 82.032 25.136L84.72 25.664C86.32 25.984 87.504 26.512 88.272 27.248C89.04 27.968 89.424 28.944 89.424 30.176C89.424 31.184 89.152 32.072 88.608 32.84C88.064 33.592 87.296 34.184 86.304 34.616C85.312 35.032 84.136 35.24 82.776 35.24ZM92.1008 35V22.88H95.1008V35H92.1008ZM91.9328 20.6V17.672H95.2688V20.6H91.9328ZM102.679 35.24C101.639 35.24 100.679 35.12 99.7986 34.88C98.9346 34.624 98.2066 34.272 97.6146 33.824L98.4546 31.808C99.0626 32.224 99.7346 32.544 100.471 32.768C101.207 32.992 101.951 33.104 102.703 33.104C103.503 33.104 104.095 32.968 104.479 32.696C104.879 32.424 105.079 32.056 105.079 31.592C105.079 31.224 104.951 30.936 104.695 30.728C104.455 30.504 104.063 30.336 103.519 30.224L101.119 29.768C100.095 29.544 99.3106 29.16 98.7666 28.616C98.2386 28.072 97.9746 27.36 97.9746 26.48C97.9746 25.728 98.1746 25.064 98.5746 24.488C98.9906 23.912 99.5746 23.464 100.327 23.144C101.095 22.808 101.991 22.64 103.015 22.64C103.911 22.64 104.751 22.76 105.535 23C106.335 23.24 107.007 23.6 107.551 24.08L106.687 26.024C106.191 25.624 105.623 25.312 104.983 25.088C104.343 24.864 103.719 24.752 103.111 24.752C102.279 24.752 101.671 24.904 101.287 25.208C100.903 25.496 100.711 25.872 100.711 26.336C100.711 26.688 100.823 26.984 101.047 27.224C101.287 27.448 101.655 27.616 102.151 27.728L104.551 28.184C105.623 28.392 106.431 28.76 106.975 29.288C107.535 29.8 107.815 30.504 107.815 31.4C107.815 32.2 107.599 32.888 107.167 33.464C106.735 34.04 106.135 34.48 105.367 34.784C104.599 35.088 103.703 35.24 102.679 35.24ZM115.449 35.24C114.009 35.24 112.921 34.864 112.185 34.112C111.449 33.36 111.081 32.232 111.081 30.728V25.136H108.753V22.88H111.081V19.784L114.081 19.016V22.88H117.321V25.136H114.081V30.536C114.081 31.368 114.241 31.952 114.561 32.288C114.881 32.624 115.321 32.792 115.881 32.792C116.185 32.792 116.441 32.768 116.649 32.72C116.873 32.672 117.089 32.608 117.297 32.528V34.904C117.025 35.016 116.721 35.096 116.385 35.144C116.065 35.208 115.753 35.24 115.449 35.24ZM125.097 35.24C123.065 35.24 121.473 34.68 120.321 33.56C119.169 32.44 118.593 30.904 118.593 28.952C118.593 27.688 118.841 26.584 119.337 25.64C119.833 24.696 120.521 23.96 121.401 23.432C122.297 22.904 123.337 22.64 124.521 22.64C125.689 22.64 126.665 22.888 127.449 23.384C128.233 23.88 128.825 24.576 129.225 25.472C129.641 26.368 129.849 27.416 129.849 28.616V29.408H121.017V27.824H127.713L127.305 28.16C127.305 27.04 127.065 26.184 126.585 25.592C126.121 25 125.441 24.704 124.545 24.704C123.553 24.704 122.785 25.056 122.241 25.76C121.713 26.464 121.449 27.448 121.449 28.712V29.024C121.449 30.336 121.769 31.32 122.409 31.976C123.065 32.616 123.985 32.936 125.169 32.936C125.857 32.936 126.497 32.848 127.089 32.672C127.697 32.48 128.273 32.176 128.817 31.76L129.705 33.776C129.129 34.24 128.441 34.6 127.641 34.856C126.841 35.112 125.993 35.24 125.097 35.24ZM132.39 35V25.904C132.39 25.408 132.374 24.904 132.342 24.392C132.31 23.88 132.262 23.376 132.198 22.88H135.102L135.342 25.28H135.054C135.39 24.448 135.902 23.8 136.59 23.336C137.294 22.872 138.126 22.64 139.086 22.64C140.046 22.64 140.838 22.872 141.462 23.336C142.102 23.784 142.55 24.488 142.806 25.448H142.422C142.758 24.584 143.31 23.904 144.078 23.408C144.846 22.896 145.726 22.64 146.718 22.64C148.078 22.64 149.094 23.04 149.766 23.84C150.438 24.64 150.774 25.888 150.774 27.584V35H147.774V27.704C147.774 26.744 147.614 26.056 147.294 25.64C146.974 25.208 146.462 24.992 145.758 24.992C144.926 24.992 144.27 25.288 143.79 25.88C143.31 26.456 143.07 27.24 143.07 28.232V35H140.07V27.704C140.07 26.744 139.91 26.056 139.59 25.64C139.27 25.208 138.758 24.992 138.054 24.992C137.222 24.992 136.566 25.288 136.086 25.88C135.622 26.456 135.39 27.24 135.39 28.232V35H132.39ZM160.802 35V18.08H168.314C170.17 18.08 171.586 18.528 172.562 19.424C173.538 20.32 174.026 21.552 174.026 23.12C174.026 24.672 173.538 25.904 172.562 26.816C171.586 27.728 170.17 28.184 168.314 28.184H163.898V35H160.802ZM163.898 25.736H167.954C168.978 25.736 169.746 25.512 170.258 25.064C170.77 24.6 171.026 23.952 171.026 23.12C171.026 22.288 170.77 21.648 170.258 21.2C169.746 20.736 168.978 20.504 167.954 20.504H163.898V25.736ZM181.816 35.24C179.784 35.24 178.192 34.68 177.04 33.56C175.888 32.44 175.312 30.904 175.312 28.952C175.312 27.688 175.56 26.584 176.056 25.64C176.552 24.696 177.24 23.96 178.12 23.432C179.016 22.904 180.056 22.64 181.24 22.64C182.408 22.64 183.384 22.888 184.168 23.384C184.952 23.88 185.544 24.576 185.944 25.472C186.36 26.368 186.568 27.416 186.568 28.616V29.408H177.736V27.824H184.432L184.024 28.16C184.024 27.04 183.784 26.184 183.304 25.592C182.84 25 182.16 24.704 181.264 24.704C180.272 24.704 179.504 25.056 178.96 25.76C178.432 26.464 178.168 27.448 178.168 28.712V29.024C178.168 30.336 178.488 31.32 179.128 31.976C179.784 32.616 180.704 32.936 181.888 32.936C182.576 32.936 183.216 32.848 183.808 32.672C184.416 32.48 184.992 32.176 185.536 31.76L186.424 33.776C185.848 34.24 185.16 34.6 184.36 34.856C183.56 35.112 182.712 35.24 181.816 35.24ZM189.109 35V25.904C189.109 25.408 189.093 24.904 189.061 24.392C189.029 23.88 188.981 23.376 188.917 22.88H191.821L192.061 25.28H191.773C192.109 24.448 192.621 23.8 193.309 23.336C194.013 22.872 194.845 22.64 195.805 22.64C196.765 22.64 197.557 22.872 198.181 23.336C198.821 23.784 199.269 24.488 199.525 25.448H199.141C199.477 24.584 200.029 23.904 200.797 23.408C201.565 22.896 202.445 22.64 203.437 22.64C204.797 22.64 205.813 23.04 206.485 23.84C207.157 24.64 207.493 25.888 207.493 27.584V35H204.493V27.704C204.493 26.744 204.333 26.056 204.013 25.64C203.693 25.208 203.181 24.992 202.477 24.992C201.645 24.992 200.989 25.288 200.509 25.88C200.029 26.456 199.789 27.24 199.789 28.232V35H196.789V27.704C196.789 26.744 196.629 26.056 196.309 25.64C195.989 25.208 195.477 24.992 194.773 24.992C193.941 24.992 193.285 25.288 192.805 25.88C192.341 26.456 192.109 27.24 192.109 28.232V35H189.109ZM217.631 35.24C216.607 35.24 215.711 34.992 214.943 34.496C214.175 33.984 213.663 33.296 213.407 32.432H213.671V35H210.695V17.336H213.695V25.352H213.407C213.679 24.52 214.199 23.864 214.967 23.384C215.735 22.888 216.623 22.64 217.631 22.64C218.703 22.64 219.639 22.896 220.439 23.408C221.239 23.92 221.863 24.648 222.311 25.592C222.759 26.52 222.983 27.64 222.983 28.952C222.983 30.264 222.759 31.392 222.311 32.336C221.863 33.264 221.231 33.984 220.415 34.496C219.615 34.992 218.687 35.24 217.631 35.24ZM216.791 32.936C217.735 32.936 218.495 32.608 219.071 31.952C219.663 31.296 219.959 30.296 219.959 28.952C219.959 27.608 219.663 26.608 219.071 25.952C218.495 25.28 217.735 24.944 216.791 24.944C215.847 24.944 215.087 25.272 214.511 25.928C213.935 26.584 213.647 27.584 213.647 28.928C213.647 30.272 213.935 31.28 214.511 31.952C215.087 32.608 215.847 32.936 216.791 32.936ZM230.257 35.24C229.201 35.24 228.273 34.992 227.473 34.496C226.673 33.984 226.049 33.256 225.601 32.312C225.153 31.368 224.929 30.24 224.929 28.928C224.929 27.616 225.153 26.496 225.601 25.568C226.049 24.624 226.673 23.904 227.473 23.408C228.273 22.896 229.201 22.64 230.257 22.64C231.281 22.64 232.177 22.896 232.945 23.408C233.729 23.904 234.249 24.576 234.505 25.424H234.241L234.505 22.88H237.385C237.337 23.376 237.289 23.88 237.241 24.392C237.209 24.904 237.193 25.408 237.193 25.904V35H234.217L234.193 32.504H234.481C234.225 33.336 233.705 34 232.921 34.496C232.137 34.992 231.249 35.24 230.257 35.24ZM231.097 32.936C232.041 32.936 232.801 32.608 233.377 31.952C233.953 31.28 234.241 30.272 234.241 28.928C234.241 27.584 233.953 26.584 233.377 25.928C232.801 25.272 232.041 24.944 231.097 24.944C230.153 24.944 229.393 25.272 228.817 25.928C228.241 26.584 227.953 27.584 227.953 28.928C227.953 30.272 228.233 31.28 228.793 31.952C229.369 32.608 230.137 32.936 231.097 32.936ZM240.103 40.448L239.407 38.072C240.159 37.912 240.791 37.728 241.303 37.52C241.815 37.312 242.239 37.04 242.575 36.704C242.911 36.368 243.191 35.936 243.415 35.408L244.015 33.992L243.943 35.168L238.663 22.88H241.855L245.647 32.336H244.951L248.767 22.88H251.791L246.271 35.672C245.903 36.536 245.503 37.248 245.071 37.808C244.639 38.384 244.175 38.84 243.679 39.176C243.183 39.528 242.639 39.8 242.047 39.992C241.455 40.184 240.807 40.336 240.103 40.448ZM257.82 35.24C256.764 35.24 255.836 34.992 255.036 34.496C254.236 33.984 253.612 33.256 253.164 32.312C252.716 31.368 252.492 30.24 252.492 28.928C252.492 27.616 252.716 26.496 253.164 25.568C253.612 24.624 254.236 23.904 255.036 23.408C255.836 22.896 256.764 22.64 257.82 22.64C258.844 22.64 259.74 22.896 260.508 23.408C261.292 23.904 261.812 24.576 262.068 25.424H261.804L262.068 22.88H264.948C264.9 23.376 264.852 23.88 264.804 24.392C264.772 24.904 264.756 25.408 264.756 25.904V35H261.78L261.756 32.504H262.044C261.788 33.336 261.268 34 260.484 34.496C259.7 34.992 258.812 35.24 257.82 35.24ZM258.66 32.936C259.604 32.936 260.364 32.608 260.94 31.952C261.516 31.28 261.804 30.272 261.804 28.928C261.804 27.584 261.516 26.584 260.94 25.928C260.364 25.272 259.604 24.944 258.66 24.944C257.716 24.944 256.956 25.272 256.38 25.928C255.804 26.584 255.516 27.584 255.516 28.928C255.516 30.272 255.796 31.28 256.356 31.952C256.932 32.608 257.7 32.936 258.66 32.936ZM267.999 35V25.976C267.999 25.464 267.983 24.944 267.951 24.416C267.935 23.888 267.895 23.376 267.831 22.88H270.735L271.071 26.192H270.591C270.751 25.392 271.015 24.728 271.383 24.2C271.767 23.672 272.231 23.28 272.775 23.024C273.319 22.768 273.911 22.64 274.551 22.64C274.839 22.64 275.071 22.656 275.247 22.688C275.423 22.704 275.599 22.744 275.775 22.808L275.751 25.448C275.447 25.32 275.183 25.24 274.959 25.208C274.751 25.176 274.487 25.16 274.167 25.16C273.479 25.16 272.895 25.304 272.415 25.592C271.951 25.88 271.599 26.28 271.359 26.792C271.135 27.304 271.023 27.888 271.023 28.544V35H267.999ZM282.007 35.24C280.951 35.24 280.023 34.992 279.223 34.496C278.423 33.984 277.799 33.256 277.351 32.312C276.903 31.368 276.679 30.24 276.679 28.928C276.679 27.616 276.903 26.496 277.351 25.568C277.799 24.624 278.423 23.904 279.223 23.408C280.023 22.896 280.951 22.64 282.007 22.64C283.031 22.64 283.927 22.896 284.695 23.408C285.479 23.904 285.999 24.576 286.255 25.424H285.991L286.255 22.88H289.135C289.087 23.376 289.039 23.88 288.991 24.392C288.959 24.904 288.943 25.408 288.943 25.904V35H285.967L285.943 32.504H286.231C285.975 33.336 285.455 34 284.671 34.496C283.887 34.992 282.999 35.24 282.007 35.24ZM282.847 32.936C283.791 32.936 284.551 32.608 285.127 31.952C285.703 31.28 285.991 30.272 285.991 28.928C285.991 27.584 285.703 26.584 285.127 25.928C284.551 25.272 283.791 24.944 282.847 24.944C281.903 24.944 281.143 25.272 280.567 25.928C279.991 26.584 279.703 27.584 279.703 28.928C279.703 30.272 279.983 31.28 280.543 31.952C281.119 32.608 281.887 32.936 282.847 32.936ZM292.21 35V25.904C292.21 25.408 292.194 24.904 292.162 24.392C292.13 23.88 292.082 23.376 292.018 22.88H294.922L295.162 25.28H294.874C295.258 24.432 295.826 23.784 296.578 23.336C297.33 22.872 298.202 22.64 299.194 22.64C300.618 22.64 301.69 23.04 302.41 23.84C303.13 24.64 303.49 25.888 303.49 27.584V35H300.49V27.728C300.49 26.752 300.298 26.056 299.914 25.64C299.546 25.208 298.986 24.992 298.234 24.992C297.306 24.992 296.57 25.28 296.026 25.856C295.482 26.432 295.21 27.2 295.21 28.16V35H292.21ZM319.401 35.24C318.041 35.24 316.785 35.072 315.633 34.736C314.497 34.384 313.521 33.904 312.705 33.296L313.665 30.872C314.209 31.256 314.777 31.584 315.369 31.856C315.961 32.112 316.593 32.312 317.265 32.456C317.937 32.584 318.649 32.648 319.401 32.648C320.665 32.648 321.577 32.44 322.137 32.024C322.697 31.608 322.977 31.064 322.977 30.392C322.977 29.8 322.785 29.352 322.401 29.048C322.017 28.728 321.329 28.464 320.337 28.256L317.625 27.704C316.073 27.384 314.913 26.848 314.145 26.096C313.377 25.344 312.993 24.336 312.993 23.072C312.993 22.016 313.273 21.096 313.833 20.312C314.393 19.528 315.177 18.92 316.185 18.488C317.193 18.056 318.369 17.84 319.713 17.84C320.913 17.84 322.025 18.016 323.049 18.368C324.073 18.704 324.929 19.192 325.617 19.832L324.657 22.136C323.969 21.56 323.217 21.136 322.401 20.864C321.585 20.576 320.673 20.432 319.665 20.432C318.529 20.432 317.641 20.656 317.001 21.104C316.377 21.536 316.065 22.136 316.065 22.904C316.065 23.496 316.257 23.968 316.641 24.32C317.041 24.672 317.713 24.944 318.657 25.136L321.345 25.664C322.945 25.984 324.129 26.512 324.897 27.248C325.665 27.968 326.049 28.944 326.049 30.176C326.049 31.184 325.777 32.072 325.233 32.84C324.689 33.592 323.921 34.184 322.929 34.616C321.937 35.032 320.761 35.24 319.401 35.24ZM334.582 35.24C332.55 35.24 330.958 34.68 329.806 33.56C328.654 32.44 328.078 30.904 328.078 28.952C328.078 27.688 328.326 26.584 328.822 25.64C329.318 24.696 330.006 23.96 330.886 23.432C331.782 22.904 332.822 22.64 334.006 22.64C335.174 22.64 336.15 22.888 336.934 23.384C337.718 23.88 338.31 24.576 338.71 25.472C339.126 26.368 339.334 27.416 339.334 28.616V29.408H330.502V27.824H337.198L336.79 28.16C336.79 27.04 336.55 26.184 336.07 25.592C335.606 25 334.926 24.704 334.03 24.704C333.038 24.704 332.27 25.056 331.726 25.76C331.198 26.464 330.934 27.448 330.934 28.712V29.024C330.934 30.336 331.254 31.32 331.894 31.976C332.55 32.616 333.47 32.936 334.654 32.936C335.342 32.936 335.982 32.848 336.574 32.672C337.182 32.48 337.758 32.176 338.302 31.76L339.19 33.776C338.614 34.24 337.926 34.6 337.126 34.856C336.326 35.112 335.478 35.24 334.582 35.24ZM341.874 35V17.336H344.874V28.04H344.922L349.842 22.88H353.466L347.346 29.288L347.37 28.088L353.898 35H350.178L344.922 29.576H344.874V35H341.874ZM360.354 35.24C359.106 35.24 358.026 34.984 357.114 34.472C356.202 33.96 355.49 33.232 354.978 32.288C354.482 31.344 354.234 30.224 354.234 28.928C354.234 27.632 354.482 26.52 354.978 25.592C355.49 24.648 356.202 23.92 357.114 23.408C358.026 22.896 359.106 22.64 360.354 22.64C361.602 22.64 362.682 22.896 363.594 23.408C364.522 23.92 365.234 24.648 365.73 25.592C366.242 26.52 366.498 27.632 366.498 28.928C366.498 30.224 366.242 31.344 365.73 32.288C365.234 33.232 364.522 33.96 363.594 34.472C362.682 34.984 361.602 35.24 360.354 35.24ZM360.354 32.936C361.298 32.936 362.05 32.608 362.61 31.952C363.17 31.28 363.45 30.272 363.45 28.928C363.45 27.584 363.17 26.584 362.61 25.928C362.05 25.272 361.298 24.944 360.354 24.944C359.41 24.944 358.658 25.272 358.098 25.928C357.538 26.584 357.258 27.584 357.258 28.928C357.258 30.272 357.538 31.28 358.098 31.952C358.658 32.608 359.41 32.936 360.354 32.936ZM369.085 35V17.336H372.085V35H369.085ZM380.023 35.24C378.967 35.24 378.039 34.992 377.239 34.496C376.439 33.984 375.815 33.256 375.367 32.312C374.919 31.368 374.695 30.24 374.695 28.928C374.695 27.616 374.919 26.496 375.367 25.568C375.815 24.624 376.439 23.904 377.239 23.408C378.039 22.896 378.967 22.64 380.023 22.64C381.047 22.64 381.943 22.896 382.711 23.408C383.495 23.904 384.015 24.576 384.271 25.424H384.007L384.271 22.88H387.151C387.103 23.376 387.055 23.88 387.007 24.392C386.975 24.904 386.959 25.408 386.959 25.904V35H383.983L383.959 32.504H384.247C383.991 33.336 383.471 34 382.687 34.496C381.903 34.992 381.015 35.24 380.023 35.24ZM380.863 32.936C381.807 32.936 382.567 32.608 383.143 31.952C383.719 31.28 384.007 30.272 384.007 28.928C384.007 27.584 383.719 26.584 383.143 25.928C382.567 25.272 381.807 24.944 380.863 24.944C379.919 24.944 379.159 25.272 378.583 25.928C378.007 26.584 377.719 27.584 377.719 28.928C377.719 30.272 377.999 31.28 378.559 31.952C379.135 32.608 379.903 32.936 380.863 32.936ZM390.226 35V17.336H393.226V25.304H392.89C393.258 24.44 393.826 23.784 394.594 23.336C395.362 22.872 396.242 22.64 397.234 22.64C398.674 22.64 399.746 23.048 400.45 23.864C401.154 24.664 401.506 25.888 401.506 27.536V35H398.506V27.68C398.506 26.736 398.322 26.056 397.954 25.64C397.602 25.208 397.034 24.992 396.25 24.992C395.338 24.992 394.602 25.28 394.042 25.856C393.498 26.416 393.226 27.168 393.226 28.112V35H390.226Z" fill="#233348"/>
<path d="M38.6556 31.6556V21.8223C40.8778 21.8223 41.9889 20.9667 41.9889 19.2556C41.9889 17.689 41.1445 16.9056 39.4445 16.9056C37.7333 16.9056 36.8778 17.9778 36.8778 20.1223V33.4612C36.8778 39.6278 31.8778 44.6278 25.7111 44.6278V21.2723C25.7111 18.8612 25.9556 16.8834 26.4389 15.3445C26.9222 13.8056 27.75 12.3612 28.9222 11.0278C30.2389 9.55006 31.8833 8.37784 33.8556 7.52229C35.8278 6.66673 37.8667 6.2334 39.9722 6.2334C43.7722 6.2334 46.9667 7.51118 49.5556 10.0723C52.1445 12.6334 53.4333 15.8056 53.4333 19.5834C53.4333 23.2556 52.2722 26.239 49.95 28.5223C47.8278 30.6223 44.6278 31.6778 40.3556 31.6778L38.6556 31.6556Z" fill="url(#paint0_linear_205_185)"/>
<path d="M23.4778 15.1946C17.2611 15.1946 12.2222 20.2335 12.2222 26.4501V53.7668C18.4389 53.7668 23.4778 48.7279 23.4778 42.5113V15.1946Z" fill="url(#paint1_linear_205_185)"/>
<defs>
<linearGradient id="paint0_linear_205_185" x1="28.2593" y1="10.6307" x2="43.0892" y2="36.3169" gradientUnits="userSpaceOnUse">
<stop stop-color="#1A1284"/>
<stop offset="0.0361413" stop-color="#191C89"/>
<stop offset="0.1808" stop-color="#143F99"/>
<stop offset="0.3263" stop-color="#0F5DA7"/>
<stop offset="0.4695" stop-color="#0B75B2"/>
<stop offset="0.61" stop-color="#0888BB"/>
<stop offset="0.7469" stop-color="#0595C1"/>
<stop offset="0.8788" stop-color="#039DC5"/>
<stop offset="1" stop-color="#01A0C6"/>
</linearGradient>
<linearGradient id="paint1_linear_205_185" x1="10.1499" y1="21.1468" x2="25.5476" y2="47.8164" gradientUnits="userSpaceOnUse">
<stop stop-color="#1A1284"/>
<stop offset="0.0361413" stop-color="#191C89"/>
<stop offset="0.1808" stop-color="#143F99"/>
<stop offset="0.3263" stop-color="#0F5DA7"/>
<stop offset="0.4695" stop-color="#0B75B2"/>
<stop offset="0.61" stop-color="#0888BB"/>
<stop offset="0.7469" stop-color="#0595C1"/>
<stop offset="0.8788" stop-color="#039DC5"/>
<stop offset="1" stop-color="#01A0C6"/>
</linearGradient>
</defs>
</svg>
