<svg width="28" height="28" viewBox="0 0 28 28" fill="none" xmlns="http://www.w3.org/2000/svg">
<path d="M21.7897 22.8748L15.1222 16.2062C12.1562 18.3149 8.06907 17.7991 5.71991 15.0196C3.37076 12.2401 3.54325 8.12419 6.11673 5.551C8.68953 2.97669 12.8058 2.80345 15.5858 5.15249C18.3659 7.50152 18.8819 11.589 16.7731 14.5553L23.4406 21.224L21.7909 22.8737L21.7897 22.8748ZM11.0657 5.83332C8.85338 5.83282 6.9447 7.38579 6.49528 9.55201C6.04586 11.7182 7.17923 13.9023 9.20919 14.7819C11.2391 15.6616 13.6078 14.995 14.881 13.1857C16.1542 11.3765 15.9821 8.92187 14.4689 7.308L15.1747 8.008L14.3791 7.21467L14.3651 7.20067C13.4921 6.32237 12.304 5.82998 11.0657 5.83332Z" fill="white"/>
</svg>
