<svg width="25" height="24" viewBox="0 0 25 24" fill="none" xmlns="http://www.w3.org/2000/svg">
<path d="M12.0588 22C10.9543 22 10.0588 21.1046 10.0588 20H14.0588C14.0588 21.1046 13.1634 22 12.0588 22ZM20.0588 19H4.05884V17L6.05884 16V10.5C6.05884 7.038 7.47984 4.793 10.0588 4.18V2H13.0588C12.4068 2.86394 12.0556 3.91762 12.0588 5C12.0588 5.25138 12.0775 5.50241 12.1148 5.751H12.0588C10.8387 5.67197 9.66185 6.21765 8.93384 7.2C8.31138 8.18456 8.00598 9.33638 8.05884 10.5V17H16.0588V10.5C16.0588 10.289 16.0518 10.086 16.0378 9.9C16.6993 10.0366 17.3814 10.039 18.0438 9.907C18.0548 10.118 18.0588 10.319 18.0588 10.507V16L20.0588 17V19ZM17.0588 8C16.4546 8.00073 15.8644 7.81839 15.3658 7.477C14.1876 6.67158 13.7399 5.14761 14.2953 3.8329C14.8507 2.5182 16.2554 1.77678 17.6542 2.06004C19.0531 2.34329 20.0587 3.5728 20.0588 5C20.0588 6.65685 18.7157 8 17.0588 8Z" fill="white"/>
</svg>
