<svg width="21" height="17" viewBox="0 0 21 17" fill="none" xmlns="http://www.w3.org/2000/svg">
<path d="M20.76 0.460024L20.76 5.92003C20.76 7.96003 20.4 9.84003 19.68 11.56C18.96 13.28 17.74 15.02 16.02 16.78L12.9 14.32C14.18 13 15.08 11.78 15.6 10.66C16.12 9.54003 16.38 8.34003 16.38 7.06003L18.24 8.80003H12.36V0.460024H20.76ZM8.82001 0.460024V5.92003C8.82001 7.96003 8.46001 9.84003 7.74001 11.56C7.02001 13.28 5.80001 15.02 4.08001 16.78L0.960009 14.32C2.24001 13 3.14001 11.78 3.66001 10.66C4.18001 9.54003 4.44001 8.34003 4.44001 7.06003L6.30001 8.80003L0.42001 8.80003L0.42001 0.460024L8.82001 0.460024Z" fill="white"/>
</svg>
