<svg width="537" height="48" viewBox="0 0 537 48" fill="none" xmlns="http://www.w3.org/2000/svg">
<path d="M69.584 32.168C68.352 32.168 67.248 31.968 66.272 31.568C65.296 31.168 64.512 30.576 63.92 29.792C63.344 29.008 63.04 28.064 63.008 26.96H67.376C67.44 27.584 67.656 28.064 68.024 28.4C68.392 28.72 68.872 28.88 69.464 28.88C70.072 28.88 70.552 28.744 70.904 28.472C71.256 28.184 71.432 27.792 71.432 27.296C71.432 26.88 71.288 26.536 71 26.264C70.728 25.992 70.384 25.768 69.968 25.592C69.568 25.416 68.992 25.216 68.24 24.992C67.152 24.656 66.264 24.32 65.576 23.984C64.888 23.648 64.296 23.152 63.8 22.496C63.304 21.84 63.056 20.984 63.056 19.928C63.056 18.36 63.624 17.136 64.76 16.256C65.896 15.36 67.376 14.912 69.2 14.912C71.056 14.912 72.552 15.36 73.688 16.256C74.824 17.136 75.432 18.368 75.512 19.952H71.072C71.04 19.408 70.84 18.984 70.472 18.68C70.104 18.36 69.632 18.2 69.056 18.2C68.56 18.2 68.16 18.336 67.856 18.608C67.552 18.864 67.4 19.24 67.4 19.736C67.4 20.28 67.656 20.704 68.168 21.008C68.68 21.312 69.48 21.64 70.568 21.992C71.656 22.36 72.536 22.712 73.208 23.048C73.896 23.384 74.488 23.872 74.984 24.512C75.48 25.152 75.728 25.976 75.728 26.984C75.728 27.944 75.48 28.816 74.984 29.6C74.504 30.384 73.8 31.008 72.872 31.472C71.944 31.936 70.848 32.168 69.584 32.168ZM80.3176 17.216C79.5976 17.216 79.0056 17.008 78.5416 16.592C78.0936 16.16 77.8696 15.632 77.8696 15.008C77.8696 14.368 78.0936 13.84 78.5416 13.424C79.0056 12.992 79.5976 12.776 80.3176 12.776C81.0216 12.776 81.5976 12.992 82.0456 13.424C82.5096 13.84 82.7416 14.368 82.7416 15.008C82.7416 15.632 82.5096 16.16 82.0456 16.592C81.5976 17.008 81.0216 17.216 80.3176 17.216ZM82.3576 18.608V32H78.2536V18.608H82.3576ZM90.7798 32.192C89.6118 32.192 88.5718 31.992 87.6598 31.592C86.7478 31.192 86.0278 30.648 85.4998 29.96C84.9718 29.256 84.6758 28.472 84.6118 27.608H88.6678C88.7158 28.072 88.9318 28.448 89.3158 28.736C89.6998 29.024 90.1718 29.168 90.7318 29.168C91.2438 29.168 91.6358 29.072 91.9078 28.88C92.1958 28.672 92.3398 28.408 92.3398 28.088C92.3398 27.704 92.1398 27.424 91.7398 27.248C91.3398 27.056 90.6918 26.848 89.7958 26.624C88.8358 26.4 88.0358 26.168 87.3958 25.928C86.7558 25.672 86.2038 25.28 85.7398 24.752C85.2758 24.208 85.0438 23.48 85.0438 22.568C85.0438 21.8 85.2518 21.104 85.6678 20.48C86.0998 19.84 86.7238 19.336 87.5398 18.968C88.3718 18.6 89.3558 18.416 90.4918 18.416C92.1718 18.416 93.4918 18.832 94.4518 19.664C95.4278 20.496 95.9878 21.6 96.1318 22.976H92.3398C92.2758 22.512 92.0678 22.144 91.7158 21.872C91.3798 21.6 90.9318 21.464 90.3718 21.464C89.8918 21.464 89.5238 21.56 89.2678 21.752C89.0118 21.928 88.8838 22.176 88.8838 22.496C88.8838 22.88 89.0838 23.168 89.4838 23.36C89.8998 23.552 90.5398 23.744 91.4038 23.936C92.3958 24.192 93.2038 24.448 93.8278 24.704C94.4518 24.944 94.9958 25.344 95.4598 25.904C95.9398 26.448 96.1878 27.184 96.2038 28.112C96.2038 28.896 95.9798 29.6 95.5318 30.224C95.0998 30.832 94.4678 31.312 93.6358 31.664C92.8198 32.016 91.8678 32.192 90.7798 32.192ZM106.179 28.52V32H104.091C102.603 32 101.443 31.64 100.611 30.92C99.7786 30.184 99.3626 28.992 99.3626 27.344V22.016H97.7306V18.608H99.3626V15.344H103.467V18.608H106.155V22.016H103.467V27.392C103.467 27.792 103.563 28.08 103.755 28.256C103.947 28.432 104.267 28.52 104.715 28.52H106.179ZM121.089 25.088C121.089 25.472 121.065 25.872 121.017 26.288H111.729C111.793 27.12 112.057 27.76 112.521 28.208C113.001 28.64 113.585 28.856 114.273 28.856C115.297 28.856 116.009 28.424 116.409 27.56H120.777C120.553 28.44 120.145 29.232 119.553 29.936C118.977 30.64 118.249 31.192 117.369 31.592C116.489 31.992 115.505 32.192 114.417 32.192C113.105 32.192 111.937 31.912 110.913 31.352C109.889 30.792 109.089 29.992 108.513 28.952C107.937 27.912 107.649 26.696 107.649 25.304C107.649 23.912 107.929 22.696 108.489 21.656C109.065 20.616 109.865 19.816 110.889 19.256C111.913 18.696 113.089 18.416 114.417 18.416C115.713 18.416 116.865 18.688 117.873 19.232C118.881 19.776 119.665 20.552 120.225 21.56C120.801 22.568 121.089 23.744 121.089 25.088ZM116.889 24.008C116.889 23.304 116.649 22.744 116.169 22.328C115.689 21.912 115.089 21.704 114.369 21.704C113.681 21.704 113.097 21.904 112.617 22.304C112.153 22.704 111.865 23.272 111.753 24.008H116.889ZM140.342 18.464C142.006 18.464 143.326 18.968 144.302 19.976C145.294 20.984 145.79 22.384 145.79 24.176V32H141.71V24.728C141.71 23.864 141.478 23.2 141.014 22.736C140.566 22.256 139.942 22.016 139.142 22.016C138.342 22.016 137.71 22.256 137.246 22.736C136.798 23.2 136.574 23.864 136.574 24.728V32H132.494V24.728C132.494 23.864 132.262 23.2 131.798 22.736C131.35 22.256 130.726 22.016 129.926 22.016C129.126 22.016 128.494 22.256 128.03 22.736C127.582 23.2 127.358 23.864 127.358 24.728V32H123.254V18.608H127.358V20.288C127.774 19.728 128.318 19.288 128.99 18.968C129.662 18.632 130.422 18.464 131.27 18.464C132.278 18.464 133.174 18.68 133.958 19.112C134.758 19.544 135.382 20.16 135.83 20.96C136.294 20.224 136.926 19.624 137.726 19.16C138.526 18.696 139.398 18.464 140.342 18.464ZM166.586 20.576C166.586 21.552 166.362 22.448 165.914 23.264C165.466 24.064 164.778 24.712 163.85 25.208C162.922 25.704 161.77 25.952 160.394 25.952H157.85V32H153.746V15.152H160.394C161.738 15.152 162.874 15.384 163.802 15.848C164.73 16.312 165.426 16.952 165.89 17.768C166.354 18.584 166.586 19.52 166.586 20.576ZM160.082 22.688C160.866 22.688 161.45 22.504 161.834 22.136C162.218 21.768 162.41 21.248 162.41 20.576C162.41 19.904 162.218 19.384 161.834 19.016C161.45 18.648 160.866 18.464 160.082 18.464H157.85V22.688H160.082ZM181.346 25.088C181.346 25.472 181.322 25.872 181.274 26.288H171.986C172.05 27.12 172.314 27.76 172.778 28.208C173.258 28.64 173.842 28.856 174.53 28.856C175.554 28.856 176.266 28.424 176.666 27.56H181.034C180.81 28.44 180.402 29.232 179.81 29.936C179.234 30.64 178.506 31.192 177.626 31.592C176.746 31.992 175.762 32.192 174.674 32.192C173.362 32.192 172.194 31.912 171.17 31.352C170.146 30.792 169.346 29.992 168.77 28.952C168.194 27.912 167.906 26.696 167.906 25.304C167.906 23.912 168.186 22.696 168.746 21.656C169.322 20.616 170.122 19.816 171.146 19.256C172.17 18.696 173.346 18.416 174.674 18.416C175.97 18.416 177.122 18.688 178.13 19.232C179.138 19.776 179.922 20.552 180.482 21.56C181.058 22.568 181.346 23.744 181.346 25.088ZM177.146 24.008C177.146 23.304 176.906 22.744 176.426 22.328C175.946 21.912 175.346 21.704 174.626 21.704C173.938 21.704 173.354 21.904 172.874 22.304C172.41 22.704 172.122 23.272 172.01 24.008H177.146ZM200.599 18.464C202.263 18.464 203.583 18.968 204.559 19.976C205.551 20.984 206.047 22.384 206.047 24.176V32H201.967V24.728C201.967 23.864 201.735 23.2 201.271 22.736C200.823 22.256 200.199 22.016 199.399 22.016C198.599 22.016 197.967 22.256 197.503 22.736C197.055 23.2 196.831 23.864 196.831 24.728V32H192.751V24.728C192.751 23.864 192.519 23.2 192.055 22.736C191.607 22.256 190.983 22.016 190.183 22.016C189.383 22.016 188.751 22.256 188.287 22.736C187.839 23.2 187.615 23.864 187.615 24.728V32H183.511V18.608H187.615V20.288C188.031 19.728 188.575 19.288 189.247 18.968C189.919 18.632 190.679 18.464 191.527 18.464C192.535 18.464 193.431 18.68 194.215 19.112C195.015 19.544 195.639 20.16 196.087 20.96C196.551 20.224 197.183 19.624 197.983 19.16C198.783 18.696 199.655 18.464 200.599 18.464ZM213.022 20.504C213.406 19.88 213.958 19.376 214.678 18.992C215.398 18.608 216.222 18.416 217.15 18.416C218.254 18.416 219.254 18.696 220.15 19.256C221.046 19.816 221.75 20.616 222.262 21.656C222.79 22.696 223.054 23.904 223.054 25.28C223.054 26.656 222.79 27.872 222.262 28.928C221.75 29.968 221.046 30.776 220.15 31.352C219.254 31.912 218.254 32.192 217.15 32.192C216.206 32.192 215.382 32.008 214.678 31.64C213.974 31.256 213.422 30.752 213.022 30.128V32H208.918V14.24H213.022V20.504ZM218.878 25.28C218.878 24.256 218.59 23.456 218.014 22.88C217.454 22.288 216.758 21.992 215.926 21.992C215.11 21.992 214.414 22.288 213.838 22.88C213.278 23.472 212.998 24.28 212.998 25.304C212.998 26.328 213.278 27.136 213.838 27.728C214.414 28.32 215.11 28.616 215.926 28.616C216.742 28.616 217.438 28.32 218.014 27.728C218.59 27.12 218.878 26.304 218.878 25.28ZM224.391 25.28C224.391 23.904 224.647 22.696 225.159 21.656C225.687 20.616 226.399 19.816 227.295 19.256C228.191 18.696 229.191 18.416 230.295 18.416C231.239 18.416 232.063 18.608 232.767 18.992C233.487 19.376 234.039 19.88 234.423 20.504V18.608H238.527V32H234.423V30.104C234.023 30.728 233.463 31.232 232.743 31.616C232.039 32 231.215 32.192 230.271 32.192C229.183 32.192 228.191 31.912 227.295 31.352C226.399 30.776 225.687 29.968 225.159 28.928C224.647 27.872 224.391 26.656 224.391 25.28ZM234.423 25.304C234.423 24.28 234.135 23.472 233.559 22.88C232.999 22.288 232.311 21.992 231.495 21.992C230.679 21.992 229.983 22.288 229.407 22.88C228.847 23.456 228.567 24.256 228.567 25.28C228.567 26.304 228.847 27.12 229.407 27.728C229.983 28.32 230.679 28.616 231.495 28.616C232.311 28.616 232.999 28.32 233.559 27.728C234.135 27.136 234.423 26.328 234.423 25.304ZM255.176 18.608L246.776 38.36H242.36L245.432 31.544L239.984 18.608H244.568L247.664 26.984L250.736 18.608H255.176ZM255.844 25.28C255.844 23.904 256.1 22.696 256.612 21.656C257.14 20.616 257.852 19.816 258.748 19.256C259.644 18.696 260.644 18.416 261.748 18.416C262.692 18.416 263.516 18.608 264.22 18.992C264.94 19.376 265.492 19.88 265.876 20.504V18.608H269.98V32H265.876V30.104C265.476 30.728 264.916 31.232 264.196 31.616C263.492 32 262.668 32.192 261.724 32.192C260.636 32.192 259.644 31.912 258.748 31.352C257.852 30.776 257.14 29.968 256.612 28.928C256.1 27.872 255.844 26.656 255.844 25.28ZM265.876 25.304C265.876 24.28 265.588 23.472 265.012 22.88C264.452 22.288 263.764 21.992 262.948 21.992C262.132 21.992 261.436 22.288 260.86 22.88C260.3 23.456 260.02 24.256 260.02 25.28C260.02 26.304 260.3 27.12 260.86 27.728C261.436 28.32 262.132 28.616 262.948 28.616C263.764 28.616 264.452 28.32 265.012 27.728C265.588 27.136 265.876 26.328 265.876 25.304ZM277.053 20.84C277.533 20.104 278.133 19.528 278.853 19.112C279.573 18.68 280.373 18.464 281.253 18.464V22.808H280.125C279.101 22.808 278.333 23.032 277.821 23.48C277.309 23.912 277.053 24.68 277.053 25.784V32H272.949V18.608H277.053V20.84ZM282.399 25.28C282.399 23.904 282.655 22.696 283.167 21.656C283.695 20.616 284.407 19.816 285.303 19.256C286.199 18.696 287.199 18.416 288.303 18.416C289.247 18.416 290.071 18.608 290.775 18.992C291.495 19.376 292.047 19.88 292.431 20.504V18.608H296.535V32H292.431V30.104C292.031 30.728 291.471 31.232 290.751 31.616C290.047 32 289.223 32.192 288.279 32.192C287.191 32.192 286.199 31.912 285.303 31.352C284.407 30.776 283.695 29.968 283.167 28.928C282.655 27.872 282.399 26.656 282.399 25.28ZM292.431 25.304C292.431 24.28 292.143 23.472 291.567 22.88C291.007 22.288 290.319 21.992 289.503 21.992C288.687 21.992 287.991 22.288 287.415 22.88C286.855 23.456 286.575 24.256 286.575 25.28C286.575 26.304 286.855 27.12 287.415 27.728C287.991 28.32 288.687 28.616 289.503 28.616C290.319 28.616 291.007 28.32 291.567 27.728C292.143 27.136 292.431 26.328 292.431 25.304ZM307.664 18.464C309.232 18.464 310.48 18.976 311.408 20C312.352 21.008 312.824 22.4 312.824 24.176V32H308.744V24.728C308.744 23.832 308.512 23.136 308.048 22.64C307.584 22.144 306.96 21.896 306.176 21.896C305.392 21.896 304.768 22.144 304.304 22.64C303.84 23.136 303.608 23.832 303.608 24.728V32H299.504V18.608H303.608V20.384C304.024 19.792 304.584 19.328 305.288 18.992C305.992 18.64 306.784 18.464 307.664 18.464ZM326.857 32.168C325.625 32.168 324.521 31.968 323.545 31.568C322.569 31.168 321.785 30.576 321.193 29.792C320.617 29.008 320.313 28.064 320.281 26.96H324.649C324.713 27.584 324.929 28.064 325.297 28.4C325.665 28.72 326.145 28.88 326.737 28.88C327.345 28.88 327.825 28.744 328.177 28.472C328.529 28.184 328.705 27.792 328.705 27.296C328.705 26.88 328.561 26.536 328.273 26.264C328.001 25.992 327.657 25.768 327.241 25.592C326.841 25.416 326.265 25.216 325.513 24.992C324.425 24.656 323.537 24.32 322.849 23.984C322.161 23.648 321.569 23.152 321.073 22.496C320.577 21.84 320.329 20.984 320.329 19.928C320.329 18.36 320.897 17.136 322.033 16.256C323.169 15.36 324.649 14.912 326.473 14.912C328.329 14.912 329.825 15.36 330.961 16.256C332.097 17.136 332.705 18.368 332.785 19.952H328.345C328.313 19.408 328.113 18.984 327.745 18.68C327.377 18.36 326.905 18.2 326.329 18.2C325.833 18.2 325.433 18.336 325.129 18.608C324.825 18.864 324.673 19.24 324.673 19.736C324.673 20.28 324.929 20.704 325.441 21.008C325.953 21.312 326.753 21.64 327.841 21.992C328.929 22.36 329.809 22.712 330.481 23.048C331.169 23.384 331.761 23.872 332.257 24.512C332.753 25.152 333.001 25.976 333.001 26.984C333.001 27.944 332.753 28.816 332.257 29.6C331.777 30.384 331.073 31.008 330.145 31.472C329.217 31.936 328.121 32.168 326.857 32.168ZM348.151 25.088C348.151 25.472 348.127 25.872 348.079 26.288H338.791C338.855 27.12 339.119 27.76 339.583 28.208C340.063 28.64 340.647 28.856 341.335 28.856C342.359 28.856 343.071 28.424 343.471 27.56H347.839C347.615 28.44 347.207 29.232 346.615 29.936C346.039 30.64 345.311 31.192 344.431 31.592C343.551 31.992 342.567 32.192 341.479 32.192C340.167 32.192 338.999 31.912 337.975 31.352C336.951 30.792 336.151 29.992 335.575 28.952C334.999 27.912 334.711 26.696 334.711 25.304C334.711 23.912 334.991 22.696 335.551 21.656C336.127 20.616 336.927 19.816 337.951 19.256C338.975 18.696 340.151 18.416 341.479 18.416C342.775 18.416 343.927 18.688 344.935 19.232C345.943 19.776 346.727 20.552 347.287 21.56C347.863 22.568 348.151 23.744 348.151 25.088ZM343.951 24.008C343.951 23.304 343.711 22.744 343.231 22.328C342.751 21.912 342.151 21.704 341.431 21.704C340.743 21.704 340.159 21.904 339.679 22.304C339.215 22.704 338.927 23.272 338.815 24.008H343.951ZM358.5 32L354.42 26.384V32H350.316V14.24H354.42V24.056L358.476 18.608H363.54L357.972 25.328L363.588 32H358.5ZM371.248 32.192C369.936 32.192 368.752 31.912 367.696 31.352C366.656 30.792 365.832 29.992 365.224 28.952C364.632 27.912 364.336 26.696 364.336 25.304C364.336 23.928 364.64 22.72 365.248 21.68C365.856 20.624 366.688 19.816 367.744 19.256C368.8 18.696 369.984 18.416 371.296 18.416C372.608 18.416 373.792 18.696 374.848 19.256C375.904 19.816 376.736 20.624 377.344 21.68C377.952 22.72 378.256 23.928 378.256 25.304C378.256 26.68 377.944 27.896 377.32 28.952C376.712 29.992 375.872 30.792 374.8 31.352C373.744 31.912 372.56 32.192 371.248 32.192ZM371.248 28.64C372.032 28.64 372.696 28.352 373.24 27.776C373.8 27.2 374.08 26.376 374.08 25.304C374.08 24.232 373.808 23.408 373.264 22.832C372.736 22.256 372.08 21.968 371.296 21.968C370.496 21.968 369.832 22.256 369.304 22.832C368.776 23.392 368.512 24.216 368.512 25.304C368.512 26.376 368.768 27.2 369.28 27.776C369.808 28.352 370.464 28.64 371.248 28.64ZM384.537 14.24V32H380.433V14.24H384.537ZM386.695 25.28C386.695 23.904 386.951 22.696 387.463 21.656C387.991 20.616 388.703 19.816 389.599 19.256C390.495 18.696 391.495 18.416 392.599 18.416C393.543 18.416 394.367 18.608 395.071 18.992C395.791 19.376 396.343 19.88 396.727 20.504V18.608H400.831V32H396.727V30.104C396.327 30.728 395.767 31.232 395.047 31.616C394.343 32 393.519 32.192 392.575 32.192C391.487 32.192 390.495 31.912 389.599 31.352C388.703 30.776 387.991 29.968 387.463 28.928C386.951 27.872 386.695 26.656 386.695 25.28ZM396.727 25.304C396.727 24.28 396.439 23.472 395.863 22.88C395.303 22.288 394.615 21.992 393.799 21.992C392.983 21.992 392.287 22.288 391.711 22.88C391.151 23.456 390.871 24.256 390.871 25.28C390.871 26.304 391.151 27.12 391.711 27.728C392.287 28.32 392.983 28.616 393.799 28.616C394.615 28.616 395.303 28.32 395.863 27.728C396.439 27.136 396.727 26.328 396.727 25.304ZM412.033 18.464C413.569 18.464 414.801 18.976 415.729 20C416.657 21.008 417.121 22.4 417.121 24.176V32H413.041V24.728C413.041 23.832 412.809 23.136 412.345 22.64C411.881 22.144 411.257 21.896 410.473 21.896C409.689 21.896 409.065 22.144 408.601 22.64C408.137 23.136 407.905 23.832 407.905 24.728V32H403.801V14.24H407.905V20.408C408.321 19.816 408.889 19.344 409.609 18.992C410.329 18.64 411.137 18.464 412.033 18.464Z" fill="white"/>
<path d="M30.9244 25.3245V17.4578C32.7022 17.4578 33.5911 16.7734 33.5911 15.4045C33.5911 14.1511 32.9155 13.5245 31.5555 13.5245C30.1866 13.5245 29.5022 14.3823 29.5022 16.0978V26.7689C29.5022 31.7022 25.5022 35.7022 20.5688 35.7022V17.0178C20.5688 15.0889 20.7644 13.5067 21.1511 12.2756C21.5377 11.0445 22.2 9.88892 23.1377 8.82225C24.1911 7.64003 25.5066 6.70225 27.0844 6.01781C28.6622 5.33336 30.2933 4.98669 31.9777 4.98669C35.0177 4.98669 37.5733 6.00892 39.6444 8.05781C41.7155 10.1067 42.7466 12.6445 42.7466 15.6667C42.7466 18.6045 41.8177 20.9911 39.96 22.8178C38.2622 24.4978 35.7022 25.3422 32.2844 25.3422L30.9244 25.3245Z" fill="white"/>
<path d="M18.7823 12.1556C13.8089 12.1556 9.77783 16.1868 9.77783 21.1601V43.0134C14.7512 43.0134 18.7823 38.9823 18.7823 34.009V12.1556Z" fill="white"/>
</svg>
