<svg width="57" height="65" viewBox="0 0 57 65" fill="none" xmlns="http://www.w3.org/2000/svg">
<path d="M36.104 34.723V21.2921C39.1393 21.2921 40.6569 20.1236 40.6569 17.7864C40.6569 15.6466 39.5035 14.5767 37.1816 14.5767C34.8444 14.5767 33.6759 16.0412 33.6759 18.9702V37.1892C33.6759 45.6119 26.8466 52.4412 18.4238 52.4412V20.5409C18.4238 17.2477 18.7577 14.5463 19.4179 12.4444C20.078 10.3425 21.2087 8.36965 22.8097 6.54851C24.6081 4.53008 26.8542 2.929 29.5479 1.76043C32.2417 0.59187 35.0265 0 37.9024 0C43.0927 0 47.4558 1.74526 50.9918 5.24336C54.5279 8.74146 56.2883 13.0743 56.2883 18.2341C56.2883 23.2499 54.7024 27.3247 51.5306 30.4434C48.632 33.3117 44.2612 34.7534 38.426 34.7534L36.104 34.723Z" fill="white"/>
<path d="M15.3734 12.2395C6.88238 12.2395 0 19.1219 0 27.613V64.9235C8.49106 64.9235 15.3734 58.0412 15.3734 49.5501V12.2395Z" fill="white"/>
</svg>
