<svg width="246" height="122" viewBox="0 0 246 122" fill="none" xmlns="http://www.w3.org/2000/svg">
<path d="M134.798 63.9847V50.5539C137.833 50.5539 139.351 49.3853 139.351 47.0482C139.351 44.9083 138.197 43.8384 135.875 43.8384C133.538 43.8384 132.37 45.3029 132.37 48.2319V66.4509C132.37 74.8736 125.54 81.7029 117.118 81.7029V49.8026C117.118 46.5094 117.451 43.8081 118.112 41.7062C118.772 39.6043 119.902 37.6314 121.503 35.8102C123.302 33.7918 125.548 32.1907 128.242 31.0222C130.935 29.8536 133.72 29.2617 136.596 29.2617C141.786 29.2617 146.15 31.007 149.686 34.5051C153.222 38.0032 154.982 42.336 154.982 47.4959C154.982 52.5116 153.396 56.5864 150.224 59.7051C147.326 62.5734 142.955 64.0151 137.12 64.0151L134.798 63.9847Z" fill="url(#paint0_linear_353_396)"/>
<path d="M114.067 41.5012C105.576 41.5012 98.6937 48.3836 98.6937 56.8747V94.1853C107.185 94.1853 114.067 87.3029 114.067 78.8118V41.5012Z" fill="url(#paint1_linear_353_396)"/>
<path d="M80.4336 12.0103V15.7153H79.2852V5.9126H81.9785C83.0267 5.9126 83.8379 6.16781 84.4121 6.67822C84.9909 7.18864 85.2803 7.90869 85.2803 8.83838C85.2803 9.76807 84.959 10.5291 84.3164 11.1216C83.6784 11.714 82.8148 12.0103 81.7256 12.0103H80.4336ZM80.4336 6.95166V10.9712H81.6367C82.4297 10.9712 83.0335 10.7912 83.4482 10.4312C83.8675 10.0666 84.0771 9.55387 84.0771 8.89307C84.0771 7.5988 83.3115 6.95166 81.7803 6.95166H80.4336ZM91.3487 15.8794C90.3142 15.8794 89.487 15.5535 88.8672 14.9019C88.252 14.2456 87.9444 13.3774 87.9444 12.2974C87.9444 11.1216 88.2657 10.2033 88.9082 9.54248C89.5508 8.88167 90.419 8.55127 91.5127 8.55127C92.5564 8.55127 93.3698 8.87256 93.9532 9.51514C94.5411 10.1577 94.835 11.0487 94.835 12.188C94.835 13.3045 94.5183 14.2 93.8848 14.8745C93.2559 15.5444 92.4105 15.8794 91.3487 15.8794ZM91.4307 9.49463C90.7107 9.49463 90.141 9.74072 89.7217 10.2329C89.3024 10.7205 89.0928 11.395 89.0928 12.2563C89.0928 13.0858 89.3047 13.7397 89.7286 14.2183C90.1524 14.6968 90.7198 14.936 91.4307 14.936C92.1553 14.936 92.7113 14.7013 93.0987 14.2319C93.4906 13.7625 93.6866 13.0949 93.6866 12.229C93.6866 11.354 93.4906 10.6795 93.0987 10.2056C92.7113 9.73161 92.1553 9.49463 91.4307 9.49463ZM107.404 8.71533L105.306 15.7153H104.144L102.701 10.7046C102.647 10.5132 102.61 10.2967 102.592 10.0552H102.565C102.551 10.2192 102.503 10.4312 102.421 10.6909L100.856 15.7153H99.7345L97.6153 8.71533H98.7911L100.24 13.979C100.286 14.1385 100.318 14.3481 100.336 14.6079H100.391C100.404 14.4074 100.445 14.1932 100.514 13.9653L102.127 8.71533H103.152L104.602 13.9927C104.647 14.1613 104.681 14.3709 104.704 14.6216H104.759C104.768 14.4438 104.807 14.2342 104.875 13.9927L106.297 8.71533H107.404ZM116.289 12.4956H111.347C111.365 13.2749 111.575 13.8765 111.976 14.3003C112.377 14.7241 112.928 14.936 113.63 14.936C114.418 14.936 115.143 14.6763 115.804 14.1567V15.2095C115.189 15.6561 114.375 15.8794 113.363 15.8794C112.374 15.8794 111.597 15.5627 111.032 14.9292C110.467 14.2912 110.185 13.3957 110.185 12.2427C110.185 11.1535 110.492 10.2671 111.108 9.5835C111.727 8.89535 112.495 8.55127 113.411 8.55127C114.327 8.55127 115.036 8.84749 115.537 9.43994C116.039 10.0324 116.289 10.855 116.289 11.9077V12.4956ZM115.141 11.5454C115.136 10.8983 114.979 10.3947 114.669 10.0347C114.364 9.67464 113.938 9.49463 113.391 9.49463C112.862 9.49463 112.413 9.68376 112.044 10.062C111.675 10.4403 111.447 10.9347 111.36 11.5454H115.141ZM123.602 9.8501C123.406 9.69971 123.123 9.62451 122.754 9.62451C122.276 9.62451 121.875 9.8501 121.551 10.3013C121.232 10.7524 121.072 11.3677 121.072 12.147V15.7153H119.951V8.71533H121.072V10.1577H121.1C121.259 9.66553 121.503 9.28271 121.831 9.00928C122.159 8.73128 122.526 8.59229 122.932 8.59229C123.223 8.59229 123.447 8.62419 123.602 8.68799V9.8501ZM132.404 12.4956H127.462C127.48 13.2749 127.69 13.8765 128.091 14.3003C128.492 14.7241 129.043 14.936 129.745 14.936C130.534 14.936 131.258 14.6763 131.919 14.1567V15.2095C131.304 15.6561 130.49 15.8794 129.479 15.8794C128.49 15.8794 127.713 15.5627 127.148 14.9292C126.583 14.2912 126.3 13.3957 126.3 12.2427C126.3 11.1535 126.608 10.2671 127.223 9.5835C127.843 8.89535 128.611 8.55127 129.527 8.55127C130.443 8.55127 131.151 8.84749 131.653 9.43994C132.154 10.0324 132.404 10.855 132.404 11.9077V12.4956ZM131.256 11.5454C131.251 10.8983 131.094 10.3947 130.784 10.0347C130.479 9.67464 130.053 9.49463 129.506 9.49463C128.977 9.49463 128.529 9.68376 128.159 10.062C127.79 10.4403 127.562 10.9347 127.476 11.5454H131.256ZM142.041 15.7153H140.92V14.5259H140.893C140.373 15.4282 139.571 15.8794 138.487 15.8794C137.607 15.8794 136.903 15.5672 136.374 14.9429C135.85 14.314 135.588 13.4595 135.588 12.3794C135.588 11.2218 135.88 10.2944 136.463 9.59717C137.046 8.8999 137.823 8.55127 138.794 8.55127C139.756 8.55127 140.455 8.92952 140.893 9.68604H140.92V5.35205H142.041V15.7153ZM140.92 12.5503V11.5181C140.92 10.953 140.733 10.4744 140.36 10.0825C139.986 9.69059 139.512 9.49463 138.938 9.49463C138.254 9.49463 137.716 9.74528 137.324 10.2466C136.933 10.7479 136.737 11.4406 136.737 12.3247C136.737 13.1313 136.923 13.7694 137.297 14.2388C137.675 14.7036 138.181 14.936 138.815 14.936C139.439 14.936 139.945 14.7104 140.332 14.2593C140.724 13.8081 140.92 13.2384 140.92 12.5503ZM153.221 14.7036H153.194V15.7153H152.073V5.35205H153.194V9.9458H153.221C153.772 9.01611 154.579 8.55127 155.641 8.55127C156.539 8.55127 157.241 8.86572 157.746 9.49463C158.257 10.119 158.512 10.9575 158.512 12.0103C158.512 13.1815 158.227 14.1203 157.658 14.8267C157.088 15.5285 156.309 15.8794 155.32 15.8794C154.395 15.8794 153.695 15.4875 153.221 14.7036ZM153.194 11.8804V12.8579C153.194 13.4367 153.381 13.9289 153.754 14.3345C154.132 14.7355 154.611 14.936 155.19 14.936C155.869 14.936 156.4 14.6763 156.783 14.1567C157.17 13.6372 157.364 12.9149 157.364 11.9897C157.364 11.2104 157.184 10.5998 156.824 10.1577C156.464 9.71566 155.976 9.49463 155.361 9.49463C154.709 9.49463 154.185 9.72249 153.788 10.1782C153.392 10.6294 153.194 11.1968 153.194 11.8804ZM167.834 8.71533L164.615 16.8364C164.04 18.2856 163.234 19.0103 162.195 19.0103C161.903 19.0103 161.659 18.9806 161.463 18.9214V17.9165C161.705 17.9985 161.926 18.0396 162.126 18.0396C162.691 18.0396 163.115 17.7023 163.398 17.0278L163.958 15.7017L161.224 8.71533H162.468L164.362 14.1021C164.384 14.1704 164.432 14.3481 164.505 14.6353H164.546C164.569 14.5259 164.615 14.3527 164.683 14.1157L166.672 8.71533H167.834Z" fill="#473D3D"/>
<path d="M6.23438 117.925C4.81706 117.925 3.6071 117.426 2.60449 116.428C1.60645 115.425 1.10742 114.215 1.10742 112.798C1.10742 111.381 1.60645 110.173 2.60449 109.175C3.6071 108.172 4.81706 107.671 6.23438 107.671C7.64714 107.671 8.85254 108.172 9.85059 109.175C10.8532 110.173 11.3545 111.381 11.3545 112.798C11.3545 114.215 10.8532 115.425 9.85059 116.428C8.85254 117.426 7.64714 117.925 6.23438 117.925ZM6.23438 108.272C4.98568 108.272 3.91927 108.715 3.03516 109.599C2.15104 110.483 1.70898 111.549 1.70898 112.798C1.70898 114.047 2.15104 115.113 3.03516 115.997C3.91927 116.877 4.98568 117.316 6.23438 117.316C7.48307 117.316 8.5472 116.877 9.42676 115.997C10.3109 115.113 10.7529 114.047 10.7529 112.798C10.7529 111.549 10.3109 110.483 9.42676 109.599C8.5472 108.715 7.48307 108.272 6.23438 108.272ZM8.08691 115.45C7.6084 115.765 7.04329 115.922 6.3916 115.922C5.5166 115.922 4.78288 115.637 4.19043 115.067C3.59798 114.498 3.30176 113.785 3.30176 112.928C3.30176 111.934 3.60482 111.141 4.21094 110.549C4.81706 109.956 5.60547 109.66 6.57617 109.66C7.1276 109.66 7.62207 109.781 8.05957 110.022V111.048C7.66764 110.72 7.14583 110.556 6.49414 110.556C5.85156 110.556 5.32064 110.761 4.90137 111.171C4.48665 111.581 4.2793 112.132 4.2793 112.825C4.2793 113.5 4.49121 114.04 4.91504 114.445C5.34342 114.851 5.88574 115.054 6.54199 115.054C7.14355 115.054 7.65853 114.876 8.08691 114.521V115.45ZM25.5079 110.467C25.5079 110.166 25.46 109.904 25.3643 109.681C25.2732 109.457 25.1456 109.273 24.9815 109.127C24.822 108.977 24.6329 108.865 24.4141 108.792C24.1954 108.719 23.9584 108.683 23.7032 108.683C23.4845 108.683 23.2703 108.712 23.0606 108.771C22.851 108.831 22.6459 108.913 22.4454 109.018C22.2494 109.122 22.058 109.248 21.8712 109.394C21.6889 109.539 21.518 109.701 21.3585 109.879V108.676C21.6729 108.37 22.0238 108.138 22.4112 107.979C22.8031 107.814 23.2794 107.732 23.8399 107.732C24.241 107.732 24.6124 107.792 24.9542 107.91C25.296 108.024 25.5922 108.193 25.8429 108.416C26.0935 108.639 26.2895 108.915 26.4307 109.243C26.5766 109.571 26.6495 109.947 26.6495 110.371C26.6495 110.758 26.6039 111.109 26.5128 111.424C26.4262 111.738 26.2917 112.035 26.1095 112.312C25.9317 112.59 25.7061 112.857 25.4327 113.112C25.1593 113.368 24.838 113.627 24.4688 113.892C24.0085 114.22 23.628 114.5 23.3272 114.732C23.031 114.965 22.794 115.184 22.6163 115.389C22.4431 115.589 22.3201 115.792 22.2471 115.997C22.1788 116.198 22.1446 116.43 22.1446 116.694H27.0255V117.699H20.9757V117.214C20.9757 116.795 21.0212 116.425 21.1124 116.106C21.2035 115.787 21.3539 115.484 21.5636 115.197C21.7732 114.91 22.0466 114.623 22.3839 114.336C22.7257 114.049 23.1427 113.725 23.6348 113.365C23.9903 113.11 24.2865 112.866 24.5235 112.634C24.7651 112.401 24.9587 112.169 25.1046 111.937C25.2504 111.704 25.3529 111.469 25.4122 111.232C25.476 110.991 25.5079 110.736 25.5079 110.467ZM36.7101 112.757C36.7101 113.577 36.6349 114.304 36.4845 114.938C36.3387 115.571 36.1245 116.106 35.8419 116.544C35.5639 116.977 35.2198 117.307 34.8097 117.535C34.4041 117.758 33.9415 117.87 33.422 117.87C32.9298 117.87 32.49 117.763 32.1027 117.549C31.7198 117.33 31.3963 117.013 31.132 116.599C30.8676 116.184 30.6671 115.676 30.5304 115.074C30.3937 114.468 30.3253 113.775 30.3253 112.996C30.3253 112.139 30.396 111.383 30.5372 110.727C30.6831 110.07 30.895 109.521 31.173 109.079C31.451 108.632 31.795 108.298 32.2052 108.074C32.6199 107.846 33.0939 107.732 33.6271 107.732C35.6824 107.732 36.7101 109.407 36.7101 112.757ZM35.5616 112.866C35.5616 110.077 34.8986 108.683 33.5724 108.683C32.1733 108.683 31.4738 110.102 31.4738 112.941C31.4738 115.589 32.1596 116.913 33.5314 116.913C34.8849 116.913 35.5616 115.564 35.5616 112.866ZM44.5216 110.467C44.5216 110.166 44.4738 109.904 44.3781 109.681C44.2869 109.457 44.1593 109.273 43.9953 109.127C43.8358 108.977 43.6466 108.865 43.4279 108.792C43.2091 108.719 42.9722 108.683 42.717 108.683C42.4982 108.683 42.284 108.712 42.0744 108.771C41.8647 108.831 41.6597 108.913 41.4591 109.018C41.2632 109.122 41.0718 109.248 40.8849 109.394C40.7026 109.539 40.5317 109.701 40.3722 109.879V108.676C40.6867 108.37 41.0376 108.138 41.425 107.979C41.8169 107.814 42.2931 107.732 42.8537 107.732C43.2547 107.732 43.6261 107.792 43.9679 107.91C44.3097 108.024 44.606 108.193 44.8566 108.416C45.1073 108.639 45.3032 108.915 45.4445 109.243C45.5903 109.571 45.6632 109.947 45.6632 110.371C45.6632 110.758 45.6177 111.109 45.5265 111.424C45.4399 111.738 45.3055 112.035 45.1232 112.312C44.9455 112.59 44.7199 112.857 44.4464 113.112C44.173 113.368 43.8517 113.627 43.4826 113.892C43.0223 114.22 42.6418 114.5 42.341 114.732C42.0448 114.965 41.8078 115.184 41.63 115.389C41.4569 115.589 41.3338 115.792 41.2609 115.997C41.1925 116.198 41.1584 116.43 41.1584 116.694H46.0392V117.699H39.9894V117.214C39.9894 116.795 40.035 116.425 40.1261 116.106C40.2173 115.787 40.3677 115.484 40.5773 115.197C40.7869 114.91 41.0604 114.623 41.3976 114.336C41.7394 114.049 42.1564 113.725 42.6486 113.365C43.0041 113.11 43.3003 112.866 43.5373 112.634C43.7788 112.401 43.9725 112.169 44.1183 111.937C44.2642 111.704 44.3667 111.469 44.4259 111.232C44.4897 110.991 44.5216 110.736 44.5216 110.467ZM54.0285 110.467C54.0285 110.166 53.9807 109.904 53.885 109.681C53.7938 109.457 53.6662 109.273 53.5021 109.127C53.3426 108.977 53.1535 108.865 52.9348 108.792C52.716 108.719 52.479 108.683 52.2238 108.683C52.0051 108.683 51.7909 108.712 51.5812 108.771C51.3716 108.831 51.1665 108.913 50.966 109.018C50.7701 109.122 50.5786 109.248 50.3918 109.394C50.2095 109.539 50.0386 109.701 49.8791 109.879V108.676C50.1936 108.37 50.5445 108.138 50.9318 107.979C51.3238 107.814 51.8 107.732 52.3605 107.732C52.7616 107.732 53.133 107.792 53.4748 107.91C53.8166 108.024 54.1128 108.193 54.3635 108.416C54.6141 108.639 54.8101 108.915 54.9514 109.243C55.0972 109.571 55.1701 109.947 55.1701 110.371C55.1701 110.758 55.1245 111.109 55.0334 111.424C54.9468 111.738 54.8124 112.035 54.6301 112.312C54.4523 112.59 54.2268 112.857 53.9533 113.112C53.6799 113.368 53.3586 113.627 52.9895 113.892C52.5292 114.22 52.1486 114.5 51.8479 114.732C51.5516 114.965 51.3146 115.184 51.1369 115.389C50.9637 115.589 50.8407 115.792 50.7678 115.997C50.6994 116.198 50.6652 116.43 50.6652 116.694H55.5461V117.699H49.4963V117.214C49.4963 116.795 49.5419 116.425 49.633 116.106C49.7242 115.787 49.8745 115.484 50.0842 115.197C50.2938 114.91 50.5673 114.623 50.9045 114.336C51.2463 114.049 51.6633 113.725 52.1555 113.365C52.5109 113.11 52.8072 112.866 53.0441 112.634C53.2857 112.401 53.4794 112.169 53.6252 111.937C53.771 111.704 53.8736 111.469 53.9328 111.232C53.9966 110.991 54.0285 110.736 54.0285 110.467ZM64.887 117.303V115.949C65.0419 116.086 65.2265 116.209 65.4407 116.318C65.6595 116.428 65.8873 116.521 66.1243 116.599C66.3658 116.672 66.6074 116.729 66.8489 116.77C67.0904 116.811 67.3138 116.831 67.5188 116.831C68.2252 116.831 68.7516 116.701 69.0979 116.441C69.4488 116.177 69.6243 115.799 69.6243 115.307C69.6243 115.042 69.5651 114.812 69.4466 114.616C69.3326 114.42 69.1731 114.243 68.968 114.083C68.763 113.919 68.5192 113.764 68.2366 113.618C67.9586 113.468 67.6578 113.311 67.3343 113.146C66.9925 112.973 66.6735 112.798 66.3772 112.62C66.081 112.442 65.8235 112.246 65.6048 112.032C65.386 111.818 65.2128 111.576 65.0852 111.308C64.9622 111.034 64.9007 110.715 64.9007 110.351C64.9007 109.904 64.9986 109.517 65.1946 109.188C65.3906 108.856 65.6481 108.582 65.9671 108.368C66.2861 108.154 66.6484 107.994 67.054 107.89C67.4641 107.785 67.8811 107.732 68.305 107.732C69.2711 107.732 69.9752 107.849 70.4173 108.081V109.373C69.8385 108.972 69.0957 108.771 68.1888 108.771C67.9381 108.771 67.6874 108.799 67.4368 108.854C67.1861 108.904 66.9628 108.988 66.7669 109.106C66.5709 109.225 66.4114 109.378 66.2884 109.564C66.1653 109.751 66.1038 109.979 66.1038 110.248C66.1038 110.499 66.1494 110.715 66.2405 110.897C66.3362 111.08 66.4752 111.246 66.6575 111.396C66.8398 111.547 67.0608 111.693 67.3206 111.834C67.5849 111.975 67.888 112.13 68.2298 112.299C68.5807 112.472 68.9134 112.654 69.2278 112.846C69.5423 113.037 69.818 113.249 70.055 113.481C70.2919 113.714 70.4788 113.971 70.6155 114.254C70.7568 114.536 70.8274 114.86 70.8274 115.225C70.8274 115.708 70.7317 116.118 70.5403 116.455C70.3535 116.788 70.0983 117.059 69.7747 117.269C69.4557 117.478 69.0865 117.629 68.6673 117.72C68.248 117.815 67.8059 117.863 67.3411 117.863C67.1861 117.863 66.9947 117.85 66.7669 117.822C66.539 117.799 66.3066 117.763 66.0696 117.713C65.8326 117.667 65.607 117.61 65.3929 117.542C65.1832 117.469 65.0146 117.389 64.887 117.303ZM75.8909 113.994V117.699H74.7425V107.896H77.4359C78.484 107.896 79.2952 108.152 79.8695 108.662C80.4482 109.173 80.7376 109.893 80.7376 110.822C80.7376 111.752 80.4163 112.513 79.7738 113.105C79.1357 113.698 78.2721 113.994 77.1829 113.994H75.8909ZM75.8909 108.936V112.955H77.0941C77.887 112.955 78.4909 112.775 78.9056 112.415C79.3249 112.05 79.5345 111.538 79.5345 110.877C79.5345 109.583 78.7689 108.936 77.2376 108.936H75.8909ZM84.7894 117.85C84.5798 117.85 84.3998 117.774 84.2494 117.624C84.1035 117.474 84.0306 117.294 84.0306 117.084C84.0306 116.874 84.1035 116.694 84.2494 116.544C84.3998 116.389 84.5798 116.312 84.7894 116.312C85.0036 116.312 85.1859 116.389 85.3363 116.544C85.4867 116.694 85.5619 116.874 85.5619 117.084C85.5619 117.294 85.4867 117.474 85.3363 117.624C85.1859 117.774 85.0036 117.85 84.7894 117.85ZM102.935 117.699H101.664L100.624 114.951H96.4682L95.4907 117.699H94.2123L97.9721 107.896H99.1616L102.935 117.699ZM100.248 113.919L98.7104 109.742C98.6603 109.605 98.6101 109.387 98.56 109.086H98.5327C98.4871 109.364 98.4347 109.583 98.3754 109.742L96.851 113.919H100.248ZM107.315 117.699H106.194V107.336H107.315V117.699ZM112.666 117.699H111.544V107.336H112.666V117.699ZM126.347 111.834C126.151 111.684 125.869 111.608 125.5 111.608C125.021 111.608 124.62 111.834 124.296 112.285C123.977 112.736 123.818 113.352 123.818 114.131V117.699H122.697V110.699H123.818V112.142H123.845C124.005 111.649 124.249 111.267 124.577 110.993C124.905 110.715 125.272 110.576 125.677 110.576C125.969 110.576 126.192 110.608 126.347 110.672V111.834ZM130.098 108.922C129.898 108.922 129.727 108.854 129.586 108.717C129.444 108.58 129.374 108.407 129.374 108.197C129.374 107.988 129.444 107.814 129.586 107.678C129.727 107.536 129.898 107.466 130.098 107.466C130.303 107.466 130.477 107.536 130.618 107.678C130.764 107.814 130.837 107.988 130.837 108.197C130.837 108.398 130.764 108.569 130.618 108.71C130.477 108.851 130.303 108.922 130.098 108.922ZM130.645 117.699H129.524V110.699H130.645V117.699ZM140.849 117.139C140.849 119.709 139.619 120.994 137.158 120.994C136.292 120.994 135.536 120.83 134.888 120.502V119.381C135.677 119.818 136.429 120.037 137.144 120.037C138.867 120.037 139.728 119.121 139.728 117.289V116.523H139.701C139.168 117.417 138.366 117.863 137.295 117.863C136.424 117.863 135.722 117.553 135.189 116.934C134.661 116.309 134.396 115.473 134.396 114.425C134.396 113.235 134.681 112.29 135.251 111.588C135.825 110.886 136.609 110.535 137.602 110.535C138.546 110.535 139.245 110.913 139.701 111.67H139.728V110.699H140.849V117.139ZM139.728 114.534V113.502C139.728 112.946 139.539 112.47 139.161 112.073C138.787 111.677 138.32 111.479 137.759 111.479C137.067 111.479 136.524 111.731 136.133 112.237C135.741 112.739 135.545 113.443 135.545 114.35C135.545 115.129 135.731 115.753 136.105 116.223C136.483 116.688 136.982 116.92 137.602 116.92C138.231 116.92 138.742 116.697 139.133 116.25C139.53 115.803 139.728 115.231 139.728 114.534ZM150.889 117.699H149.768V113.666C149.768 112.208 149.226 111.479 148.141 111.479C147.594 111.479 147.134 111.69 146.76 112.114C146.387 112.534 146.2 113.074 146.2 113.734V117.699H145.079V107.336H146.2V111.861H146.227C146.765 110.977 147.531 110.535 148.524 110.535C150.101 110.535 150.889 111.485 150.889 113.386V117.699ZM158.216 117.631C157.951 117.777 157.603 117.85 157.17 117.85C155.944 117.85 155.331 117.166 155.331 115.799V111.656H154.128V110.699H155.331V108.99L156.452 108.628V110.699H158.216V111.656H156.452V115.601C156.452 116.07 156.532 116.405 156.691 116.605C156.851 116.806 157.115 116.906 157.484 116.906C157.767 116.906 158.011 116.829 158.216 116.674V117.631ZM161.249 117.446V116.243C161.86 116.694 162.532 116.92 163.265 116.92C164.25 116.92 164.742 116.592 164.742 115.936C164.742 115.749 164.699 115.591 164.612 115.464C164.53 115.332 164.416 115.215 164.27 115.115C164.129 115.015 163.96 114.926 163.764 114.849C163.573 114.767 163.366 114.682 163.142 114.596C162.832 114.473 162.559 114.35 162.322 114.227C162.09 114.099 161.894 113.958 161.734 113.803C161.579 113.643 161.461 113.463 161.379 113.263C161.301 113.062 161.262 112.827 161.262 112.559C161.262 112.23 161.338 111.941 161.488 111.69C161.638 111.435 161.839 111.223 162.09 111.055C162.34 110.882 162.625 110.752 162.944 110.665C163.268 110.578 163.6 110.535 163.942 110.535C164.548 110.535 165.091 110.64 165.569 110.85V111.984C165.054 111.647 164.462 111.479 163.792 111.479C163.582 111.479 163.393 111.504 163.224 111.554C163.056 111.599 162.91 111.665 162.787 111.752C162.668 111.839 162.575 111.943 162.507 112.066C162.443 112.185 162.411 112.317 162.411 112.463C162.411 112.645 162.443 112.798 162.507 112.921C162.575 113.044 162.673 113.153 162.801 113.249C162.928 113.345 163.083 113.431 163.265 113.509C163.448 113.586 163.655 113.671 163.887 113.762C164.197 113.88 164.475 114.003 164.721 114.131C164.968 114.254 165.177 114.395 165.35 114.555C165.524 114.71 165.656 114.89 165.747 115.095C165.843 115.3 165.89 115.544 165.89 115.826C165.89 116.173 165.813 116.473 165.658 116.729C165.508 116.984 165.305 117.196 165.05 117.364C164.794 117.533 164.5 117.658 164.168 117.74C163.835 117.822 163.486 117.863 163.122 117.863C162.402 117.863 161.777 117.724 161.249 117.446ZM179.032 111.834C178.836 111.684 178.554 111.608 178.184 111.608C177.706 111.608 177.305 111.834 176.981 112.285C176.662 112.736 176.503 113.352 176.503 114.131V117.699H175.382V110.699H176.503V112.142H176.53C176.69 111.649 176.933 111.267 177.262 110.993C177.59 110.715 177.957 110.576 178.362 110.576C178.654 110.576 178.877 110.608 179.032 110.672V111.834ZM187.835 114.479H182.893C182.911 115.259 183.12 115.86 183.521 116.284C183.922 116.708 184.474 116.92 185.176 116.92C185.964 116.92 186.689 116.66 187.35 116.141V117.193C186.734 117.64 185.921 117.863 184.909 117.863C183.92 117.863 183.143 117.547 182.578 116.913C182.013 116.275 181.73 115.38 181.73 114.227C181.73 113.137 182.038 112.251 182.653 111.567C183.273 110.879 184.041 110.535 184.957 110.535C185.873 110.535 186.582 110.831 187.083 111.424C187.584 112.016 187.835 112.839 187.835 113.892V114.479ZM186.686 113.529C186.682 112.882 186.525 112.379 186.215 112.019C185.909 111.659 185.483 111.479 184.936 111.479C184.408 111.479 183.959 111.668 183.59 112.046C183.221 112.424 182.993 112.919 182.906 113.529H186.686ZM191.073 117.446V116.243C191.684 116.694 192.356 116.92 193.09 116.92C194.074 116.92 194.566 116.592 194.566 115.936C194.566 115.749 194.523 115.591 194.436 115.464C194.354 115.332 194.241 115.215 194.095 115.115C193.953 115.015 193.785 114.926 193.589 114.849C193.397 114.767 193.19 114.682 192.967 114.596C192.657 114.473 192.383 114.35 192.146 114.227C191.914 114.099 191.718 113.958 191.559 113.803C191.404 113.643 191.285 113.463 191.203 113.263C191.126 113.062 191.087 112.827 191.087 112.559C191.087 112.23 191.162 111.941 191.312 111.69C191.463 111.435 191.663 111.223 191.914 111.055C192.165 110.882 192.45 110.752 192.769 110.665C193.092 110.578 193.425 110.535 193.767 110.535C194.373 110.535 194.915 110.64 195.394 110.85V111.984C194.879 111.647 194.286 111.479 193.616 111.479C193.407 111.479 193.217 111.504 193.049 111.554C192.88 111.599 192.734 111.665 192.611 111.752C192.493 111.839 192.399 111.943 192.331 112.066C192.267 112.185 192.235 112.317 192.235 112.463C192.235 112.645 192.267 112.798 192.331 112.921C192.399 113.044 192.497 113.153 192.625 113.249C192.753 113.345 192.908 113.431 193.09 113.509C193.272 113.586 193.479 113.671 193.712 113.762C194.022 113.88 194.3 114.003 194.546 114.131C194.792 114.254 195.002 114.395 195.175 114.555C195.348 114.71 195.48 114.89 195.571 115.095C195.667 115.3 195.715 115.544 195.715 115.826C195.715 116.173 195.637 116.473 195.482 116.729C195.332 116.984 195.129 117.196 194.874 117.364C194.619 117.533 194.325 117.658 193.992 117.74C193.659 117.822 193.311 117.863 192.946 117.863C192.226 117.863 191.602 117.724 191.073 117.446ZM205.03 114.479H200.088C200.106 115.259 200.316 115.86 200.717 116.284C201.118 116.708 201.669 116.92 202.371 116.92C203.16 116.92 203.884 116.66 204.545 116.141V117.193C203.93 117.64 203.116 117.863 202.104 117.863C201.116 117.863 200.339 117.547 199.773 116.913C199.208 116.275 198.926 115.38 198.926 114.227C198.926 113.137 199.233 112.251 199.849 111.567C200.468 110.879 201.236 110.535 202.152 110.535C203.068 110.535 203.777 110.831 204.278 111.424C204.78 112.016 205.03 112.839 205.03 113.892V114.479ZM203.882 113.529C203.877 112.882 203.72 112.379 203.41 112.019C203.105 111.659 202.679 111.479 202.132 111.479C201.603 111.479 201.154 111.668 200.785 112.046C200.416 112.424 200.188 112.919 200.102 113.529H203.882ZM212.343 111.834C212.147 111.684 211.864 111.608 211.495 111.608C211.017 111.608 210.616 111.834 210.292 112.285C209.973 112.736 209.814 113.352 209.814 114.131V117.699H208.692V110.699H209.814V112.142H209.841C210 111.649 210.244 111.267 210.572 110.993C210.9 110.715 211.267 110.576 211.673 110.576C211.965 110.576 212.188 110.608 212.343 110.672V111.834ZM221.023 110.699L218.233 117.699H217.133L214.481 110.699H215.711L217.488 115.785C217.621 116.159 217.703 116.485 217.734 116.763H217.762C217.807 116.412 217.88 116.095 217.981 115.812L219.84 110.699H221.023ZM229.818 114.479H224.876C224.894 115.259 225.104 115.86 225.505 116.284C225.906 116.708 226.457 116.92 227.159 116.92C227.948 116.92 228.672 116.66 229.333 116.141V117.193C228.718 117.64 227.904 117.863 226.893 117.863C225.904 117.863 225.127 117.547 224.562 116.913C223.997 116.275 223.714 115.38 223.714 114.227C223.714 113.137 224.022 112.251 224.637 111.567C225.257 110.879 226.025 110.535 226.941 110.535C227.857 110.535 228.565 110.831 229.067 111.424C229.568 112.016 229.818 112.839 229.818 113.892V114.479ZM228.67 113.529C228.665 112.882 228.508 112.379 228.198 112.019C227.893 111.659 227.467 111.479 226.92 111.479C226.391 111.479 225.943 111.668 225.573 112.046C225.204 112.424 224.976 112.919 224.89 113.529H228.67ZM239.455 117.699H238.334V116.51H238.307C237.787 117.412 236.985 117.863 235.901 117.863C235.021 117.863 234.317 117.551 233.788 116.927C233.264 116.298 233.002 115.443 233.002 114.363C233.002 113.206 233.294 112.278 233.877 111.581C234.46 110.884 235.237 110.535 236.208 110.535C237.17 110.535 237.869 110.913 238.307 111.67H238.334V107.336H239.455V117.699ZM238.334 114.534V113.502C238.334 112.937 238.147 112.458 237.774 112.066C237.4 111.674 236.926 111.479 236.352 111.479C235.668 111.479 235.13 111.729 234.738 112.23C234.347 112.732 234.151 113.424 234.151 114.309C234.151 115.115 234.337 115.753 234.711 116.223C235.089 116.688 235.595 116.92 236.229 116.92C236.853 116.92 237.359 116.694 237.746 116.243C238.138 115.792 238.334 115.222 238.334 114.534ZM244.074 117.85C243.865 117.85 243.685 117.774 243.534 117.624C243.389 117.474 243.316 117.294 243.316 117.084C243.316 116.874 243.389 116.694 243.534 116.544C243.685 116.389 243.865 116.312 244.074 116.312C244.289 116.312 244.471 116.389 244.621 116.544C244.772 116.694 244.847 116.874 244.847 117.084C244.847 117.294 244.772 117.474 244.621 117.624C244.471 117.774 244.289 117.85 244.074 117.85Z" fill="#473D3D"/>
<defs>
<linearGradient id="paint0_linear_353_396" x1="136.05" y1="29.2617" x2="136.05" y2="81.7029" gradientUnits="userSpaceOnUse">
<stop stop-color="#152C91"/>
<stop offset="1" stop-color="#058BBC"/>
</linearGradient>
<linearGradient id="paint1_linear_353_396" x1="106.38" y1="41.5012" x2="106.38" y2="94.1853" gradientUnits="userSpaceOnUse">
<stop stop-color="#152C91"/>
<stop offset="1" stop-color="#058BBC"/>
</linearGradient>
</defs>
</svg>
