<svg width="134" height="134" viewBox="0 0 134 134" fill="none" xmlns="http://www.w3.org/2000/svg">
<circle cx="67" cy="67" r="67" fill="url(#paint0_linear_24_24)"/>
<path d="M37.034 108.268L34.838 105.892C34.298 106.048 33.704 106.126 33.056 106.126C31.892 106.126 30.818 105.856 29.834 105.316C28.862 104.764 28.088 104.002 27.512 103.03C26.948 102.046 26.666 100.942 26.666 99.718C26.666 98.494 26.948 97.396 27.512 96.424C28.088 95.452 28.862 94.696 29.834 94.156C30.818 93.604 31.892 93.328 33.056 93.328C34.232 93.328 35.306 93.604 36.278 94.156C37.262 94.696 38.036 95.452 38.6 96.424C39.164 97.396 39.446 98.494 39.446 99.718C39.446 100.87 39.194 101.914 38.69 102.85C38.198 103.774 37.514 104.518 36.638 105.082L39.644 108.268H37.034ZM28.772 99.718C28.772 100.642 28.952 101.458 29.312 102.166C29.684 102.862 30.194 103.402 30.842 103.786C31.49 104.158 32.228 104.344 33.056 104.344C33.884 104.344 34.622 104.158 35.27 103.786C35.918 103.402 36.422 102.862 36.782 102.166C37.154 101.458 37.34 100.642 37.34 99.718C37.34 98.794 37.154 97.984 36.782 97.288C36.422 96.592 35.918 96.058 35.27 95.686C34.622 95.314 33.884 95.128 33.056 95.128C32.228 95.128 31.49 95.314 30.842 95.686C30.194 96.058 29.684 96.592 29.312 97.288C28.952 97.984 28.772 98.794 28.772 99.718ZM48.196 106L45.316 100.996H43.75V106H41.698V93.49H46.018C46.978 93.49 47.788 93.658 48.448 93.994C49.12 94.33 49.618 94.78 49.942 95.344C50.278 95.908 50.446 96.538 50.446 97.234C50.446 98.05 50.206 98.794 49.726 99.466C49.258 100.126 48.532 100.576 47.548 100.816L50.644 106H48.196ZM43.75 99.358H46.018C46.786 99.358 47.362 99.166 47.746 98.782C48.142 98.398 48.34 97.882 48.34 97.234C48.34 96.586 48.148 96.082 47.764 95.722C47.38 95.35 46.798 95.164 46.018 95.164H43.75V99.358ZM57.4228 99.718C57.4228 98.494 57.7048 97.396 58.2688 96.424C58.8448 95.452 59.6188 94.696 60.5908 94.156C61.5748 93.604 62.6488 93.328 63.8128 93.328C65.1448 93.328 66.3268 93.658 67.3588 94.318C68.4028 94.966 69.1588 95.89 69.6268 97.09H67.1608C66.8368 96.43 66.3868 95.938 65.8108 95.614C65.2348 95.29 64.5688 95.128 63.8128 95.128C62.9848 95.128 62.2468 95.314 61.5988 95.686C60.9508 96.058 60.4408 96.592 60.0688 97.288C59.7088 97.984 59.5288 98.794 59.5288 99.718C59.5288 100.642 59.7088 101.452 60.0688 102.148C60.4408 102.844 60.9508 103.384 61.5988 103.768C62.2468 104.14 62.9848 104.326 63.8128 104.326C64.5688 104.326 65.2348 104.164 65.8108 103.84C66.3868 103.516 66.8368 103.024 67.1608 102.364H69.6268C69.1588 103.564 68.4028 104.488 67.3588 105.136C66.3268 105.784 65.1448 106.108 63.8128 106.108C62.6368 106.108 61.5628 105.838 60.5908 105.298C59.6188 104.746 58.8448 103.984 58.2688 103.012C57.7048 102.04 57.4228 100.942 57.4228 99.718ZM77.9147 106.126C76.7507 106.126 75.6767 105.856 74.6927 105.316C73.7207 104.764 72.9467 104.002 72.3707 103.03C71.8067 102.046 71.5247 100.942 71.5247 99.718C71.5247 98.494 71.8067 97.396 72.3707 96.424C72.9467 95.452 73.7207 94.696 74.6927 94.156C75.6767 93.604 76.7507 93.328 77.9147 93.328C79.0907 93.328 80.1647 93.604 81.1367 94.156C82.1207 94.696 82.8947 95.452 83.4587 96.424C84.0227 97.396 84.3047 98.494 84.3047 99.718C84.3047 100.942 84.0227 102.046 83.4587 103.03C82.8947 104.002 82.1207 104.764 81.1367 105.316C80.1647 105.856 79.0907 106.126 77.9147 106.126ZM77.9147 104.344C78.7427 104.344 79.4807 104.158 80.1287 103.786C80.7767 103.402 81.2807 102.862 81.6407 102.166C82.0127 101.458 82.1987 100.642 82.1987 99.718C82.1987 98.794 82.0127 97.984 81.6407 97.288C81.2807 96.592 80.7767 96.058 80.1287 95.686C79.4807 95.314 78.7427 95.128 77.9147 95.128C77.0867 95.128 76.3487 95.314 75.7007 95.686C75.0527 96.058 74.5427 96.592 74.1707 97.288C73.8107 97.984 73.6307 98.794 73.6307 99.718C73.6307 100.642 73.8107 101.458 74.1707 102.166C74.5427 102.862 75.0527 103.402 75.7007 103.786C76.3487 104.158 77.0867 104.344 77.9147 104.344ZM90.5899 93.49C91.9219 93.49 93.0859 93.748 94.0819 94.264C95.0899 94.768 95.8639 95.5 96.4039 96.46C96.9559 97.408 97.2319 98.518 97.2319 99.79C97.2319 101.062 96.9559 102.166 96.4039 103.102C95.8639 104.038 95.0899 104.758 94.0819 105.262C93.0859 105.754 91.9219 106 90.5899 106H86.5039V93.49H90.5899ZM90.5899 104.326C92.0539 104.326 93.1759 103.93 93.9559 103.138C94.7359 102.346 95.1259 101.23 95.1259 99.79C95.1259 98.338 94.7359 97.204 93.9559 96.388C93.1759 95.572 92.0539 95.164 90.5899 95.164H88.5559V104.326H90.5899ZM101.498 95.146V98.818H105.818V100.492H101.498V104.326H106.358V106H99.4456V93.472H106.358V95.146H101.498Z" fill="white"/>
<path d="M48 34.25H54.3333V40.3333H48V34.25Z" fill="white"/>
<path d="M38.5 49.4583V25.125H63.8333V49.4583H38.5ZM44.8333 31.2083V43.375H57.5V31.2083H44.8333Z" fill="white"/>
<path d="M70.1667 55.5417H79.6667V61.625H70.1667V55.5417Z" fill="white"/>
<path d="M79.6667 61.625H86V55.5417H95.5V64.6667H86V67.7083H89.1667V70.75H95.5V79.875H89.1667V73.7917H82.8333V79.875H70.1667V67.7083H76.5V73.7917H79.6667V61.625Z" fill="white"/>
<path d="M86 34.25H79.6667V40.3333H86V34.25Z" fill="white"/>
<path d="M70.1667 25.125V49.4583H95.5V25.125H70.1667ZM89.1667 31.2083V43.375H76.5V31.2083H89.1667Z" fill="white"/>
<path d="M48 64.6667H54.3333V70.75H48V64.6667Z" fill="white"/>
<path d="M38.5 79.875V55.5417H63.8333V79.875H38.5ZM44.8333 61.625V73.7917H57.5V61.625H44.8333Z" fill="white"/>
<defs>
<linearGradient id="paint0_linear_24_24" x1="67" y1="0" x2="67" y2="134" gradientUnits="userSpaceOnUse">
<stop stop-color="#56AAE6"/>
<stop offset="1" stop-color="#0265AE"/>
</linearGradient>
</defs>
</svg>
